<svg version="1.1" id="Layer_1" xmlns="http://www.w3.org/2000/svg" xmlns:xlink="http://www.w3.org/1999/xlink" x="0px" y="0px"
	 width="100%" viewBox="0 0 130 130" enable-background="new 0 0 130 130" xml:space="preserve">
<path fill="#010101" opacity="1.000000" stroke="none" 
	d="
M1.000000,59.000000 
	C1.000000,39.708691 1.000000,20.417383 1.000000,1.063038 
	C44.333302,1.063038 87.666641,1.063038 131.000000,1.063038 
	C131.000000,6.079370 131.000000,11.068487 130.569336,16.653866 
	C130.044418,17.736050 129.867935,18.221933 129.867691,18.707903 
	C129.852524,50.314434 129.839432,81.920990 129.897980,113.527412 
	C129.900131,114.685616 130.616501,115.842499 131.000000,117.000000 
	C131.000000,121.655891 131.000000,126.311790 131.000000,130.983841 
	C87.777458,130.983841 44.554913,130.983841 1.000000,130.983841 
	C1.000000,115.980743 1.000000,100.959030 1.317566,85.419800 
	C2.607126,85.185272 3.739758,85.244904 4.514506,85.802132 
	C5.762852,86.699974 6.775193,87.925957 7.941279,89.030754 
	C7.995327,89.048187 7.963688,89.157127 8.012817,89.335907 
	C8.184957,89.747643 8.373634,89.898529 8.786080,90.203934 
	C8.962139,90.629379 8.980097,90.818230 8.983719,91.338577 
	C8.978330,92.112480 8.987278,92.554878 8.906376,93.041031 
	C8.816525,93.084785 8.801182,93.321747 8.801182,93.321747 
	C8.801182,93.321747 9.002685,93.003662 9.253691,93.003624 
	C9.672033,93.002686 9.839369,93.001778 10.233856,93.098740 
	C10.809443,93.335518 10.988663,93.592453 10.942648,94.281906 
	C10.419083,95.641945 9.951541,96.687500 9.405622,97.908333 
	C15.058708,99.355835 17.842907,106.821419 25.017128,105.382019 
	C26.258318,109.750816 28.741959,106.549446 30.865370,106.709717 
	C31.432095,106.728218 31.724110,106.853874 31.988834,107.471909 
	C32.745060,112.462456 33.774940,112.948288 37.589886,111.044044 
	C36.482101,109.940536 35.262699,108.725838 34.481716,107.438705 
	C37.261742,107.519737 39.603344,107.673218 41.974289,107.997818 
	C42.355984,108.053284 42.708344,107.937637 43.363159,107.636482 
	C44.121540,107.331863 44.577461,107.212753 45.417786,107.223259 
	C46.870930,107.272064 47.939671,107.191254 49.389076,107.225616 
	C50.551456,107.456596 51.333179,107.572403 52.329506,107.887955 
	C54.045399,107.953896 55.546677,107.820084 57.475254,107.564407 
	C60.276436,107.318748 62.650322,107.194962 65.267914,107.207031 
	C65.682625,107.416046 65.853645,107.489212 66.156372,107.842278 
	C67.506981,107.734451 68.725883,107.346725 69.971970,106.974945 
	C69.999153,106.990898 69.951332,106.947540 70.322937,106.841690 
	C72.927696,102.229126 72.656960,96.318069 70.031708,93.658226 
	C70.012810,92.894676 70.072685,92.456375 70.483032,91.987228 
	C73.169388,91.223381 73.626991,89.911797 71.068047,89.250854 
	C69.218925,88.773247 67.056198,89.509804 64.589485,89.770569 
	C61.755405,89.916763 59.365173,89.997238 56.536682,89.996521 
	C53.722755,89.974373 51.347084,90.033417 48.535385,90.005173 
	C45.723888,89.875397 43.348415,89.832901 40.664261,89.582962 
	C38.860054,89.269112 37.364536,89.162720 35.548332,89.092148 
	C34.813492,89.022415 34.399330,88.916862 33.829842,88.643555 
	C33.429970,88.273422 33.149048,88.167511 32.895683,88.122993 
	C32.959618,88.087921 32.862888,88.197075 32.768692,87.840645 
	C32.207283,86.108955 31.740074,84.733696 31.369566,83.643082 
	C29.042788,83.395439 27.105669,83.189262 24.953350,82.818939 
	C24.674936,82.485779 24.611725,82.316772 24.941738,82.115097 
	C26.484528,81.580315 27.634092,81.078186 28.783657,80.576057 
	C28.583092,80.211052 28.382528,79.846054 28.181965,79.481049 
	C26.709000,80.053421 25.236034,80.625793 23.773106,81.173004 
	C23.783144,81.147835 23.771446,81.206398 23.843975,80.818306 
	C25.619648,77.292480 26.128843,74.436852 24.628506,70.692841 
	C21.881865,63.838753 26.949680,56.872311 34.328815,56.033657 
	C33.904255,58.997231 33.472778,62.009094 33.025055,65.017143 
	C33.008804,65.013329 33.025822,65.040787 32.608898,65.028877 
	C30.843212,65.620941 28.680027,65.894569 28.279114,66.882996 
	C25.849976,72.871826 31.106796,80.045830 37.813705,79.814873 
	C38.758083,79.810997 39.386967,79.819923 39.959557,79.930923 
	C39.903267,80.032990 40.004532,80.242760 40.334404,80.437668 
	C43.432735,80.493828 46.201187,80.355080 49.415470,80.159264 
	C52.254406,79.980171 54.647514,79.858131 57.286060,79.798538 
	C57.687508,79.925522 57.843521,79.990067 58.262180,80.273956 
	C60.016125,80.355713 61.507420,80.218124 63.329224,79.999084 
	C64.108414,79.860168 64.557091,79.802704 64.938202,79.848885 
	C64.870628,79.952530 64.945984,80.188217 65.277756,80.390381 
	C72.707069,81.505135 73.239815,80.506241 72.544220,73.594879 
	C71.993515,68.123138 72.821426,62.512646 73.067383,57.338894 
	C73.492889,59.368095 73.888153,61.022167 74.616875,64.071625 
	C78.387054,59.790394 81.266800,56.520298 84.439163,53.073452 
	C90.850456,47.655182 90.847519,47.658989 97.432999,52.733505 
	C98.214401,53.335617 99.049095,53.868561 99.939911,54.735886 
	C102.698730,57.855915 105.376717,60.673615 108.608345,64.073837 
	C108.885956,62.260723 109.025497,61.780624 109.022255,61.301487 
	C108.999001,57.861309 108.946739,54.421322 108.939529,50.534985 
	C108.904594,45.663486 110.365036,40.728176 104.849487,37.846340 
	C104.444305,37.421200 104.162994,37.225285 103.862167,36.664879 
	C104.076355,35.123150 104.310051,33.945915 104.682373,32.598228 
	C104.820999,32.427780 105.024979,32.038589 105.361481,31.989407 
	C110.153572,27.720886 114.609177,23.501549 119.064774,19.282211 
	C118.739449,18.848791 118.414131,18.415373 118.088806,17.981953 
	C111.871727,19.030539 104.409271,15.019944 99.622406,23.102367 
	C98.542755,24.096357 97.732643,24.961489 96.542068,25.943336 
	C94.286095,25.300331 91.948662,25.009869 90.616295,23.698357 
	C85.301819,18.467054 85.416618,18.348392 80.325012,23.404566 
	C79.739944,23.985558 79.178711,24.590471 78.598053,25.175983 
	C74.428711,29.380186 74.445747,29.786869 79.203354,34.303940 
	C80.572792,35.498142 81.724548,36.455692 82.855682,37.725056 
	C82.834335,38.869411 82.833611,39.701950 82.573921,40.735249 
	C82.127419,41.317783 81.939888,41.699554 81.690552,42.151936 
	C81.628746,42.222546 81.656532,42.408150 81.322449,42.479668 
	C80.274147,43.333965 79.559929,44.116749 78.565048,44.938858 
	C77.834023,45.294720 77.383659,45.611259 76.624229,46.007977 
	C75.027489,46.807674 73.739815,47.527191 72.075073,48.225311 
	C71.091782,48.568642 70.485565,48.933376 69.589783,49.192451 
	C68.902924,48.995121 68.505615,48.903450 68.108063,48.851791 
	C68.107811,48.891804 68.184692,48.869591 68.112762,48.591270 
	C67.770599,48.057022 67.500359,47.801098 67.163483,47.362122 
	C66.952812,46.948471 66.751625,46.790833 66.408165,46.423382 
	C65.865608,45.784271 65.408165,45.427925 64.848511,44.869560 
	C64.529091,44.447693 64.379097,44.188885 64.471451,43.619133 
	C64.551834,39.064827 61.903118,38.730713 58.584946,39.405025 
	C58.582462,39.382389 58.567928,39.444504 58.711502,39.117439 
	C59.385254,37.815983 59.915436,36.841587 60.653755,35.484661 
	C57.521843,34.690281 54.726391,33.626537 51.856667,33.358799 
	C49.279934,33.118397 46.621590,33.752796 43.828075,33.810371 
	C43.189198,33.487408 42.721489,33.355366 42.253784,33.223320 
	C42.212887,33.425335 42.171993,33.627354 42.131096,33.829369 
	C42.754570,33.885746 43.378044,33.942123 43.996868,34.274918 
	C43.986362,34.919884 43.980511,35.288437 43.611061,35.781418 
	C42.484055,35.978634 41.720642,36.051422 40.520561,36.060997 
	C37.734264,35.913712 35.384628,35.829636 33.099617,35.478752 
	C33.391899,34.573059 33.619556,33.934166 34.322548,31.961315 
	C29.153446,33.728264 25.074844,34.948570 21.151669,36.549706 
	C19.598223,37.183697 18.465927,38.780319 17.006557,39.730892 
	C14.982025,41.049583 12.829972,42.172497 9.812436,43.908585 
	C9.647155,44.489029 9.237806,46.442123 8.533348,48.282238 
	C7.419685,51.191235 6.108182,54.024490 4.660305,56.922592 
	C4.440205,56.955383 3.997769,57.003654 3.879307,56.850262 
	C3.524612,56.634918 3.288379,56.572971 3.052145,56.511024 
	C3.369477,56.672710 3.686808,56.834396 3.921644,57.323830 
	C2.892766,58.101051 1.946383,58.550526 1.000000,59.000000 
M57.965485,111.636757 
	C59.946522,112.103783 61.927555,112.570816 63.908592,113.037842 
	C63.954399,112.436768 64.000214,111.835693 64.046021,111.234619 
	C62.200737,111.234619 60.355453,111.234619 57.965485,111.636757 
M41.504837,111.469177 
	C41.504837,111.469177 41.523060,111.513840 41.504837,111.469177 
M64.494141,33.534927 
	C64.494141,33.534927 64.473518,33.485855 64.494141,33.534927 
M32.463905,81.493965 
	C32.463905,81.493965 32.515270,81.471886 32.463905,81.493965 
z"/>
<path fill="#CDCDCD" opacity="1.000000" stroke="none" 
	d="
M131.000000,116.531342 
	C130.616501,115.842499 129.900131,114.685616 129.897980,113.527412 
	C129.839432,81.920990 129.852524,50.314434 129.867691,18.707903 
	C129.867935,18.221933 130.044418,17.736050 130.569336,17.125063 
	C131.000000,50.020893 131.000000,83.041786 131.000000,116.531342 
z"/>
<path fill="#080E15" opacity="1.000000" stroke="none" 
	d="
M3.997769,57.003654 
	C3.997769,57.003654 4.440205,56.955383 4.795443,57.040028 
	C5.150681,57.124672 5.421299,57.359154 5.379647,57.756668 
	C4.578372,63.768330 3.818749,69.382477 2.715930,74.995697 
	C1.915156,74.996521 1.457578,74.998260 1.000000,75.000000 
	C1.000000,71.307091 1.000000,67.614182 1.271374,63.407784 
	C1.361832,62.262867 1.180916,61.631432 1.000000,61.000000 
	C1.000000,60.555553 1.000000,60.111111 1.000000,59.333332 
	C1.946383,58.550526 2.892766,58.101051 3.919600,57.325764 
	C4.000053,56.999950 3.997769,57.003654 3.997769,57.003654 
z"/>
<path fill="#080E15" opacity="1.000000" stroke="none" 
	d="
M7.887232,89.013321 
	C6.775193,87.925957 5.762852,86.699974 4.514506,85.802132 
	C3.739758,85.244904 2.607126,85.185272 1.317566,84.951141 
	C1.000000,82.958336 1.000000,80.916664 1.369603,78.334106 
	C2.307205,77.296066 2.875205,76.798912 3.629561,76.602097 
	C4.018470,77.576927 4.221022,78.251427 4.387476,79.267288 
	C4.831198,80.865692 5.311018,82.122742 5.821900,83.723541 
	C6.531052,85.715973 7.209142,87.364647 7.887232,89.013321 
z"/>
<path fill="#010101" opacity="1.000000" stroke="none" 
	d="
M3.443203,76.301758 
	C2.875205,76.798912 2.307205,77.296066 1.369603,77.896606 
	C1.000000,77.250000 1.000000,76.500000 1.000000,75.375000 
	C1.457578,74.998260 1.915156,74.996521 2.862219,75.184006 
	C3.513787,75.669769 3.544287,75.979279 3.443203,76.301758 
z"/>
<path fill="#010101" opacity="1.000000" stroke="none" 
	d="
M1.000000,61.333332 
	C1.180916,61.631432 1.361832,62.262867 1.271374,62.947151 
	C1.000000,62.555553 1.000000,62.111111 1.000000,61.333332 
z"/>
<path fill="#0E7AE1" opacity="1.000000" stroke="none" 
	d="
M40.957230,36.124207 
	C41.720642,36.051422 42.484055,35.978634 43.936760,35.834511 
	C49.273346,36.990288 53.920639,38.217396 58.567928,39.444504 
	C58.567928,39.444504 58.582462,39.382389 58.714256,39.703243 
	C60.662811,41.313103 62.479576,42.602112 64.296341,43.891117 
	C64.379097,44.188885 64.529091,44.447693 64.818779,45.112968 
	C64.891251,45.558403 64.854752,46.047115 64.522751,46.132721 
	C60.952438,48.206444 56.182259,48.508606 55.906326,53.755981 
	C55.801922,55.741520 55.683159,57.726299 55.263676,59.547512 
	C50.658218,53.847813 45.009697,51.295963 37.994598,51.525955 
	C37.973507,51.334545 37.983257,50.949596 38.321648,50.944550 
	C39.810032,50.582905 40.960030,50.226307 42.512177,49.745003 
	C39.888779,45.798214 37.603638,42.360317 35.374241,39.006287 
	C37.537479,37.889568 39.247356,37.006889 40.957230,36.124207 
z"/>
<path fill="#0884ED" opacity="1.000000" stroke="none" 
	d="
M55.570942,59.711426 
	C55.683159,57.726299 55.801922,55.741520 55.906326,53.755981 
	C56.182259,48.508606 60.952438,48.206444 64.765015,46.316715 
	C65.723946,46.512115 66.108612,46.609131 66.493279,46.706146 
	C66.751625,46.790833 66.952812,46.948471 67.194489,47.660759 
	C67.589661,48.384834 67.887177,48.627213 68.184692,48.869591 
	C68.184692,48.869591 68.107811,48.891804 68.242661,49.257912 
	C68.512566,58.766331 68.647636,67.908638 68.508209,77.114265 
	C67.828865,77.759590 67.423996,78.341591 66.681976,78.947197 
	C65.894333,78.975044 65.443840,78.979286 64.997055,78.731071 
	C64.999634,78.310295 64.998505,78.141975 64.997482,77.734924 
	C64.997581,77.496185 64.997307,77.018723 65.169434,76.755966 
	C62.900352,75.999420 60.459141,75.505615 58.009865,75.006302 
	C58.001801,75.000786 57.986176,74.989098 57.987122,74.535324 
	C57.240253,69.372978 56.492443,64.664406 55.654713,59.927780 
	C55.564793,59.899719 55.570942,59.711426 55.570942,59.711426 
z"/>
<path fill="#06070D" opacity="1.000000" stroke="none" 
	d="
M55.263676,59.547512 
	C55.570942,59.711426 55.564793,59.899719 55.633175,60.333504 
	C53.487545,61.299541 51.273533,61.831795 48.658417,62.274014 
	C47.169975,62.235027 46.082638,62.286072 44.605812,62.257126 
	C43.158981,62.202309 42.101631,62.227482 40.790020,62.188629 
	C40.322208,62.387142 40.108662,62.649677 39.519341,62.940674 
	C37.109478,63.653072 35.075390,64.337013 33.041302,65.020958 
	C33.472778,62.009094 33.904255,58.997231 34.328815,56.033657 
	C26.949680,56.872311 21.881865,63.838753 24.628506,70.692841 
	C26.128843,74.436852 25.619648,77.292480 23.647797,80.817276 
	C23.379086,81.204338 22.988363,81.168282 22.903221,80.841522 
	C22.206602,79.331734 21.595125,78.148689 20.986118,76.554764 
	C21.348600,71.416573 21.708612,66.689255 22.337242,61.770683 
	C26.053545,58.345345 29.501230,55.111267 33.367546,51.952644 
	C35.196011,51.924519 36.605850,51.820938 38.015686,51.717361 
	C45.009697,51.295963 50.658218,53.847813 55.263676,59.547512 
z"/>
<path fill="#3ED9FB" opacity="1.000000" stroke="none" 
	d="
M20.983646,76.965652 
	C21.595125,78.148689 22.206602,79.331734 22.950809,81.204712 
	C23.402378,83.586418 23.721222,85.278198 23.910706,87.074074 
	C23.593933,87.508286 23.677801,87.770638 24.032251,87.972519 
	C24.031553,87.979820 24.060678,87.963440 23.819504,88.182587 
	C18.547504,87.310509 14.065838,88.777267 9.615303,91.270752 
	C9.407955,91.186653 8.998055,91.007072 8.998055,91.007072 
	C8.980097,90.818230 8.962139,90.629379 8.789515,90.000076 
	C8.492268,89.290268 8.268547,89.156097 7.963688,89.157127 
	C7.963688,89.157127 7.995327,89.048187 7.941279,89.030754 
	C7.209142,87.364647 6.531052,85.715973 5.976094,83.408386 
	C6.522882,81.580650 6.946540,80.411827 7.403357,79.151512 
	C7.857675,79.760765 8.199917,80.219727 9.109808,81.439926 
	C8.014050,75.711067 10.930749,73.413979 15.112661,73.412109 
	C17.069126,73.411232 19.026619,75.709442 20.983646,76.965652 
z"/>
<path fill="#3F3F3F" opacity="1.000000" stroke="none" 
	d="
M99.859085,54.433563 
	C99.049095,53.868561 98.214401,53.335617 97.432999,52.733505 
	C90.847519,47.658989 90.850456,47.655182 84.399895,52.992165 
	C84.068001,53.087624 83.982346,52.931416 83.991135,52.564766 
	C84.000046,51.462582 84.000175,50.727039 83.995941,49.750732 
	C83.991585,49.509968 83.988800,49.028152 84.195389,48.879890 
	C84.586487,48.450222 84.771004,48.168812 85.012787,47.575897 
	C85.176956,46.854534 85.283852,46.444683 85.569778,46.015686 
	C85.748795,45.996536 86.104820,45.942657 86.233101,45.836418 
	C86.537292,45.595356 86.691216,45.438892 86.936813,44.895355 
	C89.367050,43.686565 91.683624,42.843208 94.048347,42.248985 
	C94.418442,42.793941 94.738716,43.091778 95.074860,43.370472 
	C95.081268,43.375786 95.275131,43.155014 95.381538,43.039734 
	C94.920921,42.693207 94.460312,42.346680 94.095650,41.676128 
	C96.177818,41.234459 98.264076,41.453423 100.121178,40.901417 
	C101.864525,40.383217 103.365646,39.050110 104.973343,38.075573 
	C110.365036,40.728176 108.904594,45.663486 108.558472,50.539795 
	C104.994690,51.209644 100.012299,47.012489 99.859085,54.433563 
z"/>
<path fill="#3DE0FA" opacity="1.000000" stroke="none" 
	d="
M9.822651,91.354858 
	C14.065838,88.777267 18.547504,87.310509 24.147381,88.279373 
	C26.845646,90.777809 28.974855,93.398598 31.092316,96.257339 
	C31.080566,96.495300 31.089191,96.972595 30.756336,97.131592 
	C26.144291,99.280319 28.955465,102.618965 28.532490,105.356735 
	C27.496996,105.190392 26.808136,105.075577 26.023571,104.708130 
	C25.619171,104.307022 25.310474,104.158546 24.849380,103.687576 
	C20.130878,100.232529 15.564774,97.099976 10.998669,93.967422 
	C10.988663,93.592453 10.809443,93.335518 10.202440,92.823639 
	C9.903465,92.085388 9.863058,91.720123 9.822651,91.354858 
z"/>
<path fill="#505050" opacity="1.000000" stroke="none" 
	d="
M78.985672,34.067284 
	C74.445747,29.786869 74.428711,29.380186 78.598053,25.175983 
	C79.178711,24.590471 79.739944,23.985558 80.325012,23.404566 
	C85.416618,18.348392 85.301819,18.467054 90.616295,23.698357 
	C91.948662,25.009869 94.286095,25.300331 96.674271,26.168463 
	C97.441010,26.508844 97.695099,26.740818 97.956940,27.307522 
	C98.003647,28.086796 98.042595,28.531336 97.734695,29.027706 
	C91.004440,29.079538 84.621048,29.079538 78.159622,29.079538 
	C78.479988,31.013945 78.732834,32.540615 78.985672,34.067284 
z"/>
<path fill="#474747" opacity="1.000000" stroke="none" 
	d="
M104.849487,37.846344 
	C103.365646,39.050110 101.864525,40.383217 100.121178,40.901417 
	C98.264076,41.453423 96.177818,41.234459 94.095802,41.676052 
	C94.000000,42.000000 94.000191,41.999847 94.000191,41.999847 
	C91.683624,42.843208 89.367050,43.686565 86.792999,44.977264 
	C86.362885,45.573101 86.219322,45.745785 86.104820,45.942657 
	C86.104820,45.942657 85.748795,45.996536 85.437302,45.751076 
	C85.035316,45.128353 84.944824,44.751091 84.787903,44.064568 
	C84.484863,43.168564 84.248253,42.581818 84.100342,41.951698 
	C84.189049,41.908325 84.202698,41.672619 84.202698,41.672619 
	C84.202698,41.672619 84.004799,41.988338 83.753403,41.992626 
	C83.334412,41.999573 83.166809,42.002228 82.961243,41.636875 
	C82.893143,41.024078 82.863022,40.779285 82.832893,40.534489 
	C82.833611,39.701950 82.834335,38.869411 82.941299,37.366364 
	C85.484459,34.377388 87.794281,34.631634 89.885712,37.300529 
	C89.912552,38.200886 90.051407,38.839901 90.190269,39.478916 
	C90.793510,38.651981 91.396751,37.825047 92.023361,36.633759 
	C94.059433,34.831898 96.072151,33.394394 98.408371,31.983315 
	C99.540787,32.270344 100.349701,32.530949 101.006210,33.105026 
	C99.528534,36.579754 101.695213,36.812855 103.881676,37.029369 
	C104.162994,37.225285 104.444305,37.421200 104.849487,37.846344 
M95.829796,35.767948 
	C95.741539,35.568661 95.679077,35.349106 95.548599,35.182983 
	C95.511635,35.135921 95.276108,35.244823 95.131645,35.282196 
	C95.253975,35.469128 95.376297,35.656059 95.829796,35.767948 
z"/>
<path fill="#10A9FC" opacity="1.000000" stroke="none" 
	d="
M65.024208,107.071175 
	C62.650322,107.194962 60.276436,107.318748 57.088112,107.422653 
	C55.184479,107.288742 54.095280,107.174713 52.923477,106.716858 
	C51.530285,103.219261 50.806526,99.567543 48.702053,97.087410 
	C47.307533,95.443954 49.936062,91.848747 45.715355,92.024704 
	C45.472244,92.015373 44.986290,91.990593 44.991474,91.748535 
	C44.996658,91.506485 45.005390,91.022346 45.358696,91.015472 
	C46.798470,90.703217 47.884941,90.397842 48.971413,90.092468 
	C51.347084,90.033417 53.722755,89.974373 56.338371,90.221718 
	C55.724270,91.350746 54.870228,92.173393 53.736855,93.004875 
	C53.197453,93.303185 52.937378,93.592659 52.677303,93.882126 
	C54.118244,93.924873 55.559181,93.967621 57.000019,94.258530 
	C56.999916,94.506691 56.996708,95.002991 56.681171,95.002106 
	C55.617611,95.093964 54.869583,95.186722 53.740494,95.326721 
	C57.770290,99.075714 56.752045,107.382828 65.017540,106.271645 
	C65.017586,106.715836 65.020897,106.893509 65.024208,107.071175 
z"/>
<path fill="#0993F1" opacity="1.000000" stroke="none" 
	d="
M54.016182,92.996033 
	C54.870228,92.173393 55.724270,91.350746 56.776627,90.302910 
	C59.365173,89.997238 61.755405,89.916763 64.977661,89.876297 
	C67.250648,90.616898 68.691605,91.317482 70.132561,92.018066 
	C70.072685,92.456375 70.012810,92.894676 69.960663,94.117729 
	C69.962700,98.917496 69.957016,102.932518 69.951340,106.947540 
	C69.951332,106.947540 69.999153,106.990898 69.647247,107.042618 
	C68.862610,107.058609 68.429871,107.022881 68.096970,106.688759 
	C67.266983,99.837135 62.886932,96.677391 56.996708,95.002991 
	C56.996708,95.002991 56.999916,94.506691 57.317963,94.256027 
	C58.323997,93.902710 59.011982,93.800056 59.699966,93.697411 
	C59.679012,93.463615 59.658058,93.229828 59.637104,92.996033 
	C57.763462,92.996033 55.889824,92.996033 54.016182,92.996033 
z"/>
<path fill="#505050" opacity="1.000000" stroke="none" 
	d="
M99.891945,22.973513 
	C104.409271,15.019944 111.871727,19.030539 118.088806,17.981953 
	C118.414131,18.415373 118.739449,18.848791 119.064774,19.282211 
	C114.609177,23.501549 110.153572,27.720886 105.351456,31.611708 
	C105.394478,30.200600 105.846458,29.135658 106.158714,28.031212 
	C106.608528,26.440195 106.956810,24.820473 107.348419,23.212999 
	C105.513458,23.130453 103.678490,23.047907 101.519379,22.975229 
	C100.760803,22.981237 100.326378,22.977375 99.891945,22.973513 
z"/>
<path fill="#23BEF9" opacity="1.000000" stroke="none" 
	d="
M44.986290,91.990593 
	C44.986290,91.990593 45.472244,92.015373 45.483181,92.234924 
	C41.240788,93.170174 40.727943,95.977615 42.527584,99.025749 
	C44.265797,101.969833 46.815296,104.434929 49.008415,107.110435 
	C47.939671,107.191254 46.870930,107.272064 45.161331,106.974419 
	C43.356056,106.389206 42.191639,106.182449 41.018963,105.605499 
	C39.336433,102.499809 37.662155,99.764305 35.758072,96.793182 
	C34.110973,95.557289 32.693680,94.557014 30.150614,92.762215 
	C33.709526,93.323189 35.666771,93.631691 37.624020,93.940201 
	C37.687683,93.641800 37.751350,93.343407 37.815018,93.045006 
	C36.625523,92.180794 35.436028,91.316589 33.919220,90.214569 
	C35.107594,90.017593 35.747852,89.911461 36.771404,89.776260 
	C38.427444,89.761597 39.700195,89.776001 40.972942,89.790413 
	C43.348415,89.832901 45.723888,89.875397 48.535385,90.005173 
	C47.884941,90.397842 46.798470,90.703217 45.230167,91.110420 
	C44.573391,91.530693 44.652710,91.790146 44.986290,91.990593 
M41.466457,91.494713 
	C41.466457,91.494713 41.516167,91.473816 41.466457,91.494713 
z"/>
<path fill="#373737" opacity="1.000000" stroke="none" 
	d="
M72.452148,48.246708 
	C73.739815,47.527191 75.027489,46.807674 76.829720,46.262447 
	C79.505447,48.654297 78.505402,54.102844 83.982346,52.931416 
	C83.982346,52.931416 84.068001,53.087624 84.107269,53.168915 
	C81.266800,56.520298 78.387054,59.790394 74.616875,64.071625 
	C73.888153,61.022167 73.492889,59.368095 73.101357,57.028481 
	C73.099297,55.926056 73.093498,55.509171 73.102211,54.680771 
	C72.769066,52.692356 72.421402,51.115459 72.160439,49.330231 
	C72.310181,48.828926 72.378517,48.537197 72.452148,48.246708 
z"/>
<path fill="#4E4E4E" opacity="1.000000" stroke="none" 
	d="
M89.997742,37.039185 
	C87.794281,34.631634 85.484459,34.377388 82.961929,37.054550 
	C81.724548,36.455692 80.572792,35.498142 79.203354,34.303940 
	C78.732834,32.540615 78.479988,31.013945 78.159622,29.079538 
	C84.621048,29.079538 91.004440,29.079538 97.887436,29.233013 
	C98.286316,30.243288 98.185585,31.100088 98.084862,31.956890 
	C96.072151,33.394394 94.059433,34.831898 91.689606,36.636627 
	C90.887581,37.015625 90.442657,37.027405 89.997742,37.039185 
z"/>
<path fill="#080E15" opacity="1.000000" stroke="none" 
	d="
M5.015543,57.007233 
	C6.108182,54.024490 7.419685,51.191235 8.533348,48.282238 
	C9.237806,46.442123 9.647155,44.489029 9.812436,43.908585 
	C12.829972,42.172497 14.982025,41.049583 17.006557,39.730892 
	C18.465927,38.780319 19.598223,37.183697 21.151669,36.549706 
	C25.074844,34.948570 29.153446,33.728264 34.322548,31.961315 
	C33.619556,33.934166 33.391899,34.573059 32.819279,35.521210 
	C31.947691,36.013222 31.421066,36.195976 30.520920,36.386337 
	C29.012640,36.854446 27.877882,37.314949 26.383102,37.755852 
	C24.004862,38.788673 21.986641,39.841095 19.684296,40.926521 
	C18.997303,41.336033 18.594437,41.712543 17.881863,42.125397 
	C17.002909,42.746929 16.433659,43.332111 15.906218,43.931427 
	C15.948025,43.945557 15.969104,43.859848 15.684436,43.922318 
	C15.201009,44.303398 15.002251,44.622017 14.873081,44.941170 
	C14.942671,44.941704 14.935338,44.802715 14.655710,44.886723 
	C14.199201,45.303570 14.022321,45.636410 13.887531,45.955402 
	C13.929622,45.941555 13.893480,45.860638 13.587933,45.982723 
	C11.781537,47.937336 10.280689,49.769867 8.510601,51.808781 
	C7.301341,53.796494 6.361320,55.577824 5.421299,57.359154 
	C5.421299,57.359154 5.150681,57.124672 5.015543,57.007233 
z"/>
<path fill="#1BAEF8" opacity="1.000000" stroke="none" 
	d="
M33.025055,65.017143 
	C35.075390,64.337013 37.109478,63.653072 39.797043,62.983894 
	C40.636818,63.021030 40.823109,63.043407 40.929451,63.383148 
	C38.543732,68.540710 41.111023,73.694885 45.991646,74.004562 
	C45.999542,74.000916 45.983387,74.012947 45.744911,74.228714 
	C44.466629,74.750008 43.426823,75.055550 42.795242,75.241127 
	C43.523903,76.495285 44.276535,77.790703 44.655991,79.116592 
	C42.860489,79.374329 41.438168,79.601593 40.015846,79.828857 
	C39.386967,79.819923 38.758083,79.810997 37.715237,79.576492 
	C37.209190,79.205788 37.117111,79.060677 36.869926,78.726562 
	C36.470203,78.309593 36.185329,78.156555 35.885651,78.105530 
	C35.911102,78.132622 35.837986,78.146057 35.919846,77.881424 
	C38.087807,73.065796 36.180584,69.736938 32.751736,66.573853 
	C32.866184,65.855812 32.946003,65.448303 33.025822,65.040787 
	C33.025822,65.040787 33.008804,65.013329 33.025055,65.017143 
z"/>
<path fill="#19B5FC" opacity="1.000000" stroke="none" 
	d="
M49.389076,107.225616 
	C46.815296,104.434929 44.265797,101.969833 42.527584,99.025749 
	C40.727943,95.977615 41.240788,93.170174 45.726295,92.244263 
	C49.936062,91.848747 47.307533,95.443954 48.702053,97.087410 
	C50.806526,99.567543 51.530285,103.219261 52.690285,106.859001 
	C52.398098,107.459381 52.256496,107.573792 52.114899,107.688202 
	C51.333179,107.572403 50.551456,107.456596 49.389076,107.225616 
z"/>
<path fill="#373737" opacity="1.000000" stroke="none" 
	d="
M99.939911,54.735889 
	C100.012299,47.012489 104.994690,51.209644 108.522644,50.986092 
	C108.946739,54.421322 108.999001,57.861309 109.022255,61.301487 
	C109.025497,61.780624 108.885956,62.260723 108.608345,64.073837 
	C105.376717,60.673615 102.698730,57.855915 99.939911,54.735889 
z"/>
<path fill="#2BC0F1" opacity="1.000000" stroke="none" 
	d="
M36.388111,89.805336 
	C35.747852,89.911461 35.107594,90.017593 33.919220,90.214569 
	C35.436028,91.316589 36.625523,92.180794 37.815018,93.045006 
	C37.751350,93.343407 37.687683,93.641800 37.624020,93.940201 
	C35.666771,93.631691 33.709526,93.323189 30.150614,92.762215 
	C32.693680,94.557014 34.110973,95.557289 35.384518,96.786499 
	C34.492847,97.010597 33.744926,97.005753 32.736923,96.977058 
	C32.303310,96.938896 32.129784,96.924599 31.842377,96.736412 
	C31.551556,96.345612 31.343414,96.164566 31.104065,96.019379 
	C28.974855,93.398598 26.845646,90.777809 24.388557,88.060234 
	C24.060678,87.963440 24.031553,87.979820 24.040249,87.723831 
	C24.048943,87.467842 24.040064,86.969971 24.040064,86.969971 
	C23.721222,85.278198 23.402378,83.586418 23.035950,81.531464 
	C22.988363,81.168282 23.379086,81.204338 23.575266,81.205368 
	C23.771446,81.206398 23.783144,81.147835 23.813015,81.396240 
	C23.973539,81.958977 24.208750,82.126678 24.548512,82.147766 
	C24.611725,82.316772 24.674936,82.485779 25.059868,83.134506 
	C27.875355,85.141838 30.369120,86.669456 32.862885,88.197075 
	C32.862888,88.197075 32.959618,88.087921 32.988853,88.365501 
	C33.340450,88.699158 33.662807,88.755234 33.985168,88.811317 
	C34.399330,88.916862 34.813492,89.022415 35.688354,89.272308 
	C36.149055,89.416664 36.388111,89.805336 36.388111,89.805336 
z"/>
<path fill="#06070D" opacity="1.000000" stroke="none" 
	d="
M73.087708,55.092289 
	C73.093498,55.509171 73.099297,55.926056 73.071121,56.653351 
	C72.821426,62.512646 71.993515,68.123138 72.544220,73.594879 
	C73.239815,80.506241 72.707069,81.505135 65.706612,80.311981 
	C69.063484,80.541565 70.079437,79.089272 70.013069,75.901230 
	C69.828499,67.036438 69.905602,58.166199 69.879341,49.298111 
	C70.485565,48.933376 71.091782,48.568642 72.075073,48.225311 
	C72.378517,48.537197 72.310181,48.828926 72.148277,49.766464 
	C72.395508,51.971455 72.741608,53.531872 73.087708,55.092289 
z"/>
<path fill="#1589EF" opacity="1.000000" stroke="none" 
	d="
M30.894442,36.378727 
	C31.421066,36.195976 31.947691,36.013222 32.754654,35.788013 
	C35.384628,35.829636 37.734264,35.913712 40.520561,36.060997 
	C39.247356,37.006889 37.537479,37.889568 35.374241,39.006287 
	C37.603638,42.360317 39.888779,45.798214 42.512177,49.745003 
	C40.960030,50.226307 39.810032,50.582905 38.172226,50.636559 
	C35.421089,45.681984 33.157768,41.030357 30.894442,36.378727 
z"/>
<path fill="#35D9F5" opacity="1.000000" stroke="none" 
	d="
M31.956261,96.910301 
	C32.129784,96.924599 32.303310,96.938896 32.798229,97.329399 
	C35.789249,100.430008 34.798077,106.654762 41.027218,105.975685 
	C42.191639,106.182449 43.356056,106.389206 44.776932,106.844803 
	C44.577461,107.212753 44.121540,107.331863 43.083530,107.477097 
	C42.315941,107.611046 42.130444,107.718864 41.944950,107.826691 
	C39.603344,107.673218 37.261742,107.519737 34.161819,107.269241 
	C32.929287,107.135315 32.455074,107.098396 31.980864,107.061478 
	C31.724110,106.853874 31.432095,106.728218 30.685701,106.493263 
	C29.804102,106.004105 29.341614,105.706192 28.879126,105.408272 
	C28.955465,102.618965 26.144291,99.280319 30.972788,97.119263 
	C31.522097,96.947945 31.956261,96.910301 31.956261,96.910301 
z"/>
<path fill="#747474" opacity="1.000000" stroke="none" 
	d="
M98.408371,31.983315 
	C98.185585,31.100088 98.286316,30.243288 98.234299,29.181183 
	C98.042595,28.531336 98.003647,28.086796 98.262329,27.160643 
	C99.654488,25.441139 100.749008,24.203249 101.843529,22.965359 
	C103.678490,23.047907 105.513458,23.130453 107.348419,23.212999 
	C106.956810,24.820473 106.608528,26.440195 106.158714,28.031212 
	C105.846458,29.135658 105.394478,30.200600 105.014954,31.660891 
	C105.024979,32.038589 104.820999,32.427780 104.343124,32.597534 
	C102.963036,32.775379 102.060822,32.783466 101.158607,32.791557 
	C100.349701,32.530949 99.540787,32.270344 98.408371,31.983315 
z"/>
<path fill="#06070D" opacity="1.000000" stroke="none" 
	d="
M37.025032,78.915558 
	C37.117111,79.060677 37.209190,79.205788 37.399742,79.589294 
	C31.106796,80.045830 25.849976,72.871826 28.279114,66.882996 
	C28.680027,65.894569 30.843212,65.620941 32.608898,65.028877 
	C32.946003,65.448303 32.866184,65.855812 32.517254,66.814972 
	C31.392447,71.643234 31.194130,75.700928 35.837986,78.146057 
	C35.837986,78.146057 35.911102,78.132622 35.977180,78.357689 
	C36.370518,78.693687 36.697777,78.804626 37.025032,78.915558 
z"/>
<path fill="#06070D" opacity="1.000000" stroke="none" 
	d="
M58.711502,39.117439 
	C53.920639,38.217396 49.273346,36.990288 44.300354,35.710083 
	C43.980511,35.288437 43.986362,34.919884 43.996109,34.275665 
	C44.000000,34.000000 43.999245,34.001293 43.999245,34.001293 
	C46.621590,33.752796 49.279934,33.118397 51.856667,33.358799 
	C54.726391,33.626537 57.521843,34.690281 60.653755,35.484661 
	C59.915436,36.841587 59.385254,37.815983 58.711502,39.117439 
z"/>
<path fill="#080E15" opacity="1.000000" stroke="none" 
	d="
M10.942646,94.281906 
	C15.564774,97.099976 20.130878,100.232529 24.852694,103.934158 
	C25.008404,104.503235 25.003178,104.996826 24.999889,105.000137 
	C24.996601,105.003441 24.983953,105.016335 24.983953,105.016335 
	C17.842907,106.821419 15.058708,99.355835 9.405622,97.908333 
	C9.951541,96.687500 10.419083,95.641945 10.942646,94.281906 
z"/>
<path fill="#186CB5" opacity="1.000000" stroke="none" 
	d="
M69.589783,49.192451 
	C69.905602,58.166199 69.828499,67.036438 70.013069,75.901230 
	C70.079437,79.089272 69.063484,80.541565 65.374847,80.109810 
	C64.945984,80.188217 64.870628,79.952530 64.916565,79.658798 
	C64.962494,79.365067 64.993347,78.983528 64.993347,78.983528 
	C65.443840,78.979286 65.894333,78.975044 66.986664,78.923813 
	C68.013237,78.268204 68.397972,77.659576 68.782700,77.050941 
	C68.647636,67.908638 68.512566,58.766331 68.242905,49.217903 
	C68.505615,48.903450 68.902924,48.995121 69.589783,49.192451 
z"/>
<path fill="#080E15" opacity="1.000000" stroke="none" 
	d="
M70.322945,106.841690 
	C69.957016,102.932518 69.962700,98.917496 70.039429,94.442970 
	C72.656960,96.318069 72.927696,102.229126 70.322945,106.841690 
z"/>
<path fill="#484848" opacity="1.000000" stroke="none" 
	d="
M83.991135,52.564766 
	C78.505402,54.102844 79.505447,48.654297 77.138794,46.182270 
	C77.383659,45.611259 77.834023,45.294720 78.803528,45.140800 
	C79.549171,45.870113 79.775650,46.436802 80.156097,47.292610 
	C81.540146,48.384983 82.770226,49.188244 84.000305,49.991501 
	C84.000175,50.727039 84.000046,51.462582 83.991135,52.564766 
z"/>
<path fill="#06070D" opacity="1.000000" stroke="none" 
	d="
M32.768692,87.840645 
	C30.369120,86.669456 27.875355,85.141838 25.275070,83.298660 
	C27.105669,83.189262 29.042788,83.395439 31.369566,83.643082 
	C31.740074,84.733696 32.207283,86.108955 32.768692,87.840645 
z"/>
<path fill="#058BF6" opacity="1.000000" stroke="none" 
	d="
M64.997055,78.731071 
	C64.993347,78.983528 64.962494,79.365067 64.984131,79.555153 
	C64.557091,79.802704 64.108414,79.860168 62.919987,79.903702 
	C60.786671,79.944725 59.393101,79.999672 57.999531,80.054619 
	C57.843521,79.990067 57.687508,79.925522 56.979164,79.595169 
	C54.948845,79.195518 53.470860,79.061668 51.992558,78.699600 
	C51.992241,78.471375 51.987572,78.013947 52.450626,78.011047 
	C56.941578,77.996651 60.969479,77.985153 64.997375,77.973656 
	C64.998505,78.141975 64.999634,78.310295 64.997055,78.731071 
z"/>
<path fill="#080E15" opacity="1.000000" stroke="none" 
	d="
M31.988834,107.471909 
	C32.455074,107.098396 32.929287,107.135315 33.723396,107.341690 
	C35.262699,108.725838 36.482101,109.940536 37.589886,111.044044 
	C33.774940,112.948288 32.745060,112.462456 31.988834,107.471909 
z"/>
<path fill="#06070D" opacity="1.000000" stroke="none" 
	d="
M64.471451,43.619133 
	C62.479576,42.602112 60.662811,41.313103 58.716740,39.725880 
	C61.903118,38.730713 64.551834,39.064827 64.471451,43.619133 
z"/>
<path fill="#186CB5" opacity="1.000000" stroke="none" 
	d="
M51.992874,78.927818 
	C53.470860,79.061668 54.948845,79.195518 56.733727,79.532730 
	C54.647514,79.858131 52.254406,79.980171 48.970181,80.099327 
	C45.387554,80.145226 42.696041,80.193993 40.004532,80.242760 
	C40.004532,80.242760 39.903267,80.032990 39.959557,79.930923 
	C41.438168,79.601593 42.860489,79.374329 45.089745,79.132431 
	C47.928745,79.054466 49.960808,78.991142 51.992874,78.927818 
z"/>
<path fill="#080E15" opacity="1.000000" stroke="none" 
	d="
M58.237827,111.435684 
	C60.355453,111.234619 62.200737,111.234619 64.046021,111.234619 
	C64.000214,111.835693 63.954399,112.436768 63.908592,113.037842 
	C61.927555,112.570816 59.946522,112.103783 58.237827,111.435684 
z"/>
<path fill="#4E4E4E" opacity="1.000000" stroke="none" 
	d="
M101.006210,33.105030 
	C102.060822,32.783466 102.963036,32.775379 104.204498,32.767986 
	C104.310051,33.945915 104.076355,35.123150 103.862167,36.664879 
	C101.695213,36.812855 99.528534,36.579754 101.006210,33.105030 
z"/>
<path fill="#080E15" opacity="1.000000" stroke="none" 
	d="
M70.483032,91.987228 
	C68.691605,91.317482 67.250648,90.616898 65.421509,89.810593 
	C67.056198,89.509804 69.218925,88.773247 71.068047,89.250854 
	C73.626991,89.911797 73.169388,91.223381 70.483032,91.987228 
z"/>
<path fill="#4E4E4E" opacity="1.000000" stroke="none" 
	d="
M101.519379,22.975231 
	C100.749008,24.203249 99.654488,25.441139 98.254578,26.825909 
	C97.695099,26.740818 97.441010,26.508844 97.054726,26.051746 
	C97.732643,24.961489 98.542755,24.096357 99.622406,23.102367 
	C100.326378,22.977375 100.760803,22.981237 101.519379,22.975231 
z"/>
<path fill="#080E15" opacity="1.000000" stroke="none" 
	d="
M28.532490,105.356735 
	C29.341614,105.706192 29.804102,106.004105 30.446257,106.518478 
	C28.741959,106.549446 26.258318,109.750816 25.017128,105.382019 
	C24.983953,105.016335 24.996601,105.003441 25.279011,104.997330 
	C25.747374,104.981064 25.933325,104.970909 26.119276,104.960762 
	C26.808136,105.075577 27.496996,105.190392 28.532490,105.356735 
z"/>
<path fill="#06070D" opacity="1.000000" stroke="none" 
	d="
M24.941738,82.115097 
	C24.208750,82.126678 23.973539,81.958977 23.802977,81.421402 
	C25.236034,80.625793 26.709000,80.053421 28.181965,79.481049 
	C28.382528,79.846054 28.583092,80.211052 28.783657,80.576057 
	C27.634092,81.078186 26.484528,81.580315 24.941738,82.115097 
z"/>
<path fill="#080E15" opacity="1.000000" stroke="none" 
	d="
M52.329506,107.887955 
	C52.256496,107.573792 52.398098,107.459381 52.772888,107.202827 
	C54.095280,107.174713 55.184479,107.288742 56.660816,107.544525 
	C55.546677,107.820084 54.045399,107.953896 52.329506,107.887955 
z"/>
<path fill="#464646" opacity="1.000000" stroke="none" 
	d="
M80.002136,47.003494 
	C79.775650,46.436802 79.549171,45.870113 79.084198,45.101479 
	C79.559929,44.116749 80.274147,43.333965 81.445152,42.931496 
	C81.962257,43.614552 82.022575,43.917294 82.114929,44.488396 
	C82.153648,45.119595 82.160339,45.482426 81.896530,45.995781 
	C81.084740,46.432037 80.543442,46.717766 80.002136,47.003494 
z"/>
<path fill="#06070D" opacity="1.000000" stroke="none" 
	d="
M40.334404,80.437668 
	C42.696041,80.193993 45.387554,80.145226 48.524353,80.156387 
	C46.201187,80.355080 43.432735,80.493828 40.334404,80.437668 
z"/>
<path fill="#080E15" opacity="1.000000" stroke="none" 
	d="
M67.997139,106.987152 
	C68.429871,107.022881 68.862610,107.058609 69.620064,107.026672 
	C68.725883,107.346725 67.506981,107.734451 66.182442,107.702087 
	C66.076797,107.281990 66.026405,107.001389 66.350189,107.102921 
	C67.115028,107.132027 67.556084,107.059586 67.997139,106.987152 
z"/>
<path fill="#080E15" opacity="1.000000" stroke="none" 
	d="
M36.771404,89.776260 
	C36.388111,89.805336 36.149055,89.416664 36.009033,89.236496 
	C37.364536,89.162720 38.860054,89.269112 40.664261,89.582962 
	C39.700195,89.776001 38.427444,89.761597 36.771404,89.776260 
z"/>
<path fill="#3F3F3F" opacity="1.000000" stroke="none" 
	d="
M82.082893,44.220032 
	C82.022575,43.917294 81.962257,43.614552 81.779236,42.859978 
	C81.656532,42.408150 81.628746,42.222546 82.002892,42.127693 
	C82.584427,42.023518 82.791824,42.014198 82.999214,42.004883 
	C83.166809,42.002228 83.334412,41.999573 83.751068,41.998390 
	C84.000130,41.999863 84.011642,41.995068 84.011642,41.995068 
	C84.248253,42.581818 84.484863,43.168564 84.446335,43.997337 
	C83.475090,44.232914 82.778992,44.226471 82.082893,44.220032 
z"/>
<path fill="#06070D" opacity="1.000000" stroke="none" 
	d="
M58.262180,80.273956 
	C59.393101,79.999672 60.786671,79.944725 62.589478,79.985153 
	C61.507420,80.218124 60.016125,80.355713 58.262180,80.273956 
z"/>
<path fill="#06070D" opacity="1.000000" stroke="none" 
	d="
M44.000759,33.999252 
	C43.378044,33.942123 42.754570,33.885746 42.131096,33.829369 
	C42.171993,33.627354 42.212887,33.425335 42.253784,33.223320 
	C42.721489,33.355366 43.189198,33.487408 43.828075,33.810371 
	C43.999245,34.001293 44.000000,34.000000 44.000759,33.999252 
z"/>
<path fill="#080E15" opacity="1.000000" stroke="none" 
	d="
M4.002096,56.998016 
	C3.686808,56.834396 3.369477,56.672710 3.052145,56.511024 
	C3.288379,56.572971 3.524612,56.634918 3.879307,56.850262 
	C3.997769,57.003654 4.000053,56.999950 4.002096,56.998016 
z"/>
<path fill="#080E15" opacity="1.000000" stroke="none" 
	d="
M9.615303,91.270752 
	C9.863058,91.720123 9.903465,92.085388 9.975288,92.725754 
	C9.839369,93.001778 9.672033,93.002686 9.252347,93.001793 
	C8.999996,93.000000 8.996226,92.997269 8.996226,92.997269 
	C8.987278,92.554878 8.978330,92.112480 8.983719,91.338577 
	C8.998055,91.007072 9.407955,91.186653 9.615303,91.270752 
z"/>
<path fill="#080E15" opacity="1.000000" stroke="none" 
	d="
M41.974289,107.997810 
	C42.130444,107.718864 42.315941,107.611046 42.781075,107.662605 
	C42.708344,107.937637 42.355984,108.053284 41.974289,107.997810 
z"/>
<path fill="#186CB5" opacity="1.000000" stroke="none" 
	d="
M66.408165,46.423382 
	C66.108612,46.609131 65.723946,46.512115 65.097015,46.231110 
	C64.854752,46.047115 64.891251,45.558403 64.920990,45.314991 
	C65.408165,45.427925 65.865608,45.784271 66.408165,46.423382 
z"/>
<path fill="#464646" opacity="1.000000" stroke="none" 
	d="
M82.961243,41.636875 
	C82.791824,42.014198 82.584427,42.023518 82.064697,42.057083 
	C81.939888,41.699554 82.127419,41.317783 82.573921,40.735249 
	C82.863022,40.779285 82.893143,41.024078 82.961243,41.636875 
z"/>
<path fill="#080E15" opacity="1.000000" stroke="none" 
	d="
M41.513947,111.491508 
	C41.523060,111.513840 41.504837,111.469177 41.513947,111.491508 
z"/>
<path fill="#186CB5" opacity="1.000000" stroke="none" 
	d="
M68.112762,48.591270 
	C67.887177,48.627213 67.589661,48.384834 67.261139,47.843815 
	C67.500359,47.801098 67.770599,48.057022 68.112762,48.591270 
z"/>
<path fill="#0993F1" opacity="1.000000" stroke="none" 
	d="
M65.267914,107.207031 
	C65.020897,106.893509 65.017586,106.715836 65.218628,106.401245 
	C65.680725,106.463669 65.881866,106.709358 66.026405,107.001389 
	C66.026405,107.001389 66.076797,107.281990 66.050728,107.422180 
	C65.853645,107.489212 65.682625,107.416046 65.267914,107.207031 
z"/>
<path fill="#06070D" opacity="1.000000" stroke="none" 
	d="
M64.483826,33.510391 
	C64.473518,33.485855 64.494141,33.534927 64.483826,33.510391 
z"/>
<path fill="#080E15" opacity="1.000000" stroke="none" 
	d="
M8.012817,89.335907 
	C8.268547,89.156097 8.492268,89.290268 8.631414,89.763489 
	C8.373634,89.898529 8.184957,89.747643 8.012817,89.335907 
z"/>
<path fill="#080E15" opacity="1.000000" stroke="none" 
	d="
M9.001341,93.001831 
	C9.002685,93.003662 8.801182,93.321747 8.801182,93.321747 
	C8.801182,93.321747 8.816525,93.084785 8.906376,93.041031 
	C8.996226,92.997269 8.999996,93.000000 9.001341,93.001831 
z"/>
<path fill="#06070D" opacity="1.000000" stroke="none" 
	d="
M32.489586,81.482925 
	C32.515270,81.471886 32.463905,81.493965 32.489586,81.482925 
z"/>
<path fill="#06070D" opacity="1.000000" stroke="none" 
	d="
M33.829842,88.643555 
	C33.662807,88.755234 33.340450,88.699158 32.924919,88.400574 
	C33.149048,88.167511 33.429970,88.273422 33.829842,88.643555 
z"/>
<path fill="#46CEF1" opacity="1.000000" stroke="none" 
	d="
M5.379647,57.756668 
	C6.361320,55.577824 7.301341,53.796494 8.682323,52.070282 
	C10.743479,55.418156 12.363670,58.710915 13.826028,62.290794 
	C12.769633,64.048714 11.871074,65.519501 10.626467,67.056976 
	C8.328137,71.057739 6.375856,74.991837 4.423574,78.925926 
	C4.221022,78.251427 4.018470,77.576927 3.629561,76.602097 
	C3.544287,75.979279 3.513787,75.669769 3.205414,75.184921 
	C3.818749,69.382477 4.578372,63.768330 5.379647,57.756668 
z"/>
<path fill="#39CBF1" opacity="1.000000" stroke="none" 
	d="
M4.387476,79.267288 
	C6.375856,74.991837 8.328137,71.057739 10.831094,67.362930 
	C16.724756,70.345459 18.835384,68.971931 20.345493,61.986847 
	C21.149523,61.974388 21.609072,61.968163 22.068623,61.961941 
	C21.708612,66.689255 21.348600,71.416573 20.986116,76.554764 
	C19.026619,75.709442 17.069126,73.411232 15.112661,73.412109 
	C10.930749,73.413979 8.014050,75.711067 9.109808,81.439926 
	C8.199917,80.219727 7.857675,79.760765 7.403357,79.151512 
	C6.946540,80.411827 6.522882,81.580650 5.945031,83.064636 
	C5.311018,82.122742 4.831198,80.865692 4.387476,79.267288 
z"/>
<path fill="#2295F8" opacity="1.000000" stroke="none" 
	d="
M30.520920,36.386337 
	C33.157768,41.030357 35.421089,45.681984 37.833836,50.641605 
	C37.983257,50.949596 37.973507,51.334545 37.994598,51.525951 
	C36.605850,51.820938 35.196011,51.924519 33.148739,51.724388 
	C31.342518,50.944828 30.173733,50.468983 29.137817,49.679020 
	C28.830095,47.030483 28.429071,44.687645 27.934978,42.364605 
	C27.606504,40.820251 27.145054,39.304180 26.743122,37.775452 
	C27.877882,37.314949 29.012640,36.854446 30.520920,36.386337 
z"/>
<path fill="#0784EA" opacity="1.000000" stroke="none" 
	d="
M64.997482,77.734924 
	C60.969479,77.985153 56.941578,77.996651 52.122116,77.999969 
	C50.557129,77.664040 49.783707,77.336288 49.355453,77.008011 
	C50.728390,76.916016 51.756157,76.824562 52.783924,76.733101 
	C52.818184,76.444786 52.852448,76.156464 52.886707,75.868149 
	C51.589966,75.580132 50.293224,75.292122 48.998158,75.002052 
	C48.999832,75.000000 48.996132,75.002121 49.226326,74.728455 
	C49.747276,72.546982 50.820435,70.290787 50.159599,68.806709 
	C48.930386,66.046219 49.798077,64.584412 52.205635,63.140579 
	C53.140312,63.347977 54.196983,63.495525 54.235935,63.781631 
	C54.737675,67.466850 55.094284,71.171822 55.500088,74.989098 
	C56.374619,74.989098 57.180397,74.989098 57.986176,74.989098 
	C57.986176,74.989098 58.001801,75.000786 58.126919,75.363960 
	C60.500462,76.157661 62.748882,76.588196 64.997307,77.018723 
	C64.997307,77.018723 64.997581,77.496185 64.997482,77.734924 
z"/>
<path fill="#0979D7" opacity="1.000000" stroke="none" 
	d="
M57.987122,74.535324 
	C57.180397,74.989098 56.374619,74.989098 55.500088,74.989098 
	C55.094284,71.171822 54.737675,67.466850 54.235935,63.781631 
	C54.196983,63.495525 53.140312,63.347977 51.912556,63.105232 
	C50.532143,62.837639 49.795830,62.600842 49.059521,62.364044 
	C51.273533,61.831795 53.487545,61.299541 55.723095,60.361565 
	C56.492443,64.664406 57.240253,69.372978 57.987122,74.535324 
z"/>
<path fill="#058BF6" opacity="1.000000" stroke="none" 
	d="
M65.169434,76.755966 
	C62.748882,76.588196 60.500462,76.157661 58.134979,75.369476 
	C60.459141,75.505615 62.900352,75.999420 65.169434,76.755966 
z"/>
<path fill="#058BF6" opacity="1.000000" stroke="none" 
	d="
M68.508209,77.114265 
	C68.397972,77.659576 68.013237,78.268204 67.323822,78.900208 
	C67.423996,78.341591 67.828865,77.759590 68.508209,77.114265 
z"/>
<path fill="#2AABF3" opacity="1.000000" stroke="none" 
	d="
M29.004948,49.993141 
	C30.173733,50.468983 31.342518,50.944828 32.730110,51.648933 
	C29.501230,55.111267 26.053545,58.345345 22.337242,61.770683 
	C21.609072,61.968163 21.149523,61.974388 20.055056,61.939442 
	C18.935612,61.587547 18.451084,61.276821 18.129303,60.685993 
	C18.892132,59.278709 19.492214,58.151524 20.448053,57.001144 
	C21.606094,55.351028 22.974518,53.757843 23.073961,52.089039 
	C23.212645,49.761696 22.402735,47.377834 22.330517,45.026783 
	C25.449215,45.827332 24.614717,51.252369 29.004948,49.993141 
z"/>
<path fill="#0E90F6" opacity="1.000000" stroke="none" 
	d="
M48.658417,62.274017 
	C49.795830,62.600842 50.532143,62.837639 51.561531,63.109779 
	C49.798077,64.584412 48.930386,66.046219 50.159599,68.806709 
	C50.820435,70.290787 49.747276,72.546982 48.935673,74.595482 
	C47.604343,74.495102 46.793865,74.254021 45.983387,74.012947 
	C45.983387,74.012947 45.999542,74.000916 45.997269,73.579376 
	C45.661758,69.550926 45.328529,65.944023 44.995296,62.337112 
	C46.082638,62.286072 47.169975,62.235027 48.658417,62.274017 
z"/>
<path fill="#14A0FD" opacity="1.000000" stroke="none" 
	d="
M44.605812,62.257126 
	C45.328529,65.944023 45.661758,69.550926 45.989368,73.583023 
	C41.111023,73.694885 38.543732,68.540710 40.943314,63.179306 
	C41.037121,62.658089 41.044285,62.252651 41.044285,62.252655 
	C42.101631,62.227482 43.158981,62.202309 44.605812,62.257126 
z"/>
<path fill="#0979D7" opacity="1.000000" stroke="none" 
	d="
M40.790020,62.188629 
	C41.044285,62.252651 41.037121,62.658089 41.023258,62.861935 
	C40.823109,63.043407 40.636818,63.021030 40.172821,62.955437 
	C40.108662,62.649677 40.322208,62.387142 40.790020,62.188629 
z"/>
<path fill="#3DE0FA" opacity="1.000000" stroke="none" 
	d="
M23.910706,87.074074 
	C24.040064,86.969971 24.048943,87.467842 24.040947,87.716530 
	C23.677801,87.770638 23.593933,87.508286 23.910706,87.074074 
z"/>
<path fill="#6B6B6B" opacity="1.000000" stroke="none" 
	d="
M82.114929,44.488396 
	C82.778992,44.226471 83.475090,44.232914 84.512756,44.306591 
	C84.944824,44.751091 85.035316,45.128353 85.258286,45.770226 
	C85.283852,46.444683 85.176956,46.854534 84.786903,47.605370 
	C84.503746,47.946354 84.048363,47.927811 83.893715,47.690948 
	C83.215057,46.917809 82.691048,46.381531 82.167030,45.845253 
	C82.160339,45.482426 82.153648,45.119595 82.114929,44.488396 
z"/>
<path fill="#3A3A3A" opacity="1.000000" stroke="none" 
	d="
M81.896530,45.995781 
	C82.691048,46.381531 83.215057,46.917809 83.873566,47.966034 
	C84.001640,48.661377 83.995216,48.844765 83.988800,49.028152 
	C83.988800,49.028152 83.991585,49.509968 83.995941,49.750736 
	C82.770226,49.188244 81.540146,48.384983 80.156097,47.292610 
	C80.543442,46.717766 81.084740,46.432037 81.896530,45.995781 
z"/>
<path fill="#474747" opacity="1.000000" stroke="none" 
	d="
M93.999847,42.000076 
	C94.460312,42.346680 94.920921,42.693207 95.381538,43.039734 
	C95.275131,43.155014 95.081268,43.375786 95.074860,43.370472 
	C94.738716,43.091778 94.418442,42.793941 94.048347,42.248985 
	C94.000191,41.999847 94.000000,42.000000 93.999847,42.000076 
z"/>
<path fill="#484848" opacity="1.000000" stroke="none" 
	d="
M84.195389,48.879890 
	C83.995216,48.844765 84.001640,48.661377 84.028214,48.202896 
	C84.048363,47.927811 84.503746,47.946354 84.729630,47.916878 
	C84.771004,48.168812 84.586487,48.450222 84.195389,48.879890 
z"/>
<path fill="#6B6B6B" opacity="1.000000" stroke="none" 
	d="
M86.233101,45.836418 
	C86.219322,45.745785 86.362885,45.573101 86.679337,45.342697 
	C86.691216,45.438892 86.537292,45.595356 86.233101,45.836418 
z"/>
<path fill="#010101" opacity="1.000000" stroke="none" 
	d="
M26.023571,104.708130 
	C25.933325,104.970909 25.747374,104.981064 25.282299,104.994026 
	C25.003178,104.996826 25.008404,104.503235 25.005091,104.256653 
	C25.310474,104.158546 25.619171,104.307022 26.023571,104.708130 
z"/>
<path fill="#23BEF9" opacity="1.000000" stroke="none" 
	d="
M31.842377,96.736412 
	C31.956261,96.910301 31.522097,96.947945 31.305645,96.960266 
	C31.089191,96.972595 31.080566,96.495300 31.092316,96.257339 
	C31.343414,96.164566 31.551556,96.345612 31.842377,96.736412 
z"/>
<path fill="#3F3F3F" opacity="1.000000" stroke="none" 
	d="
M89.885712,37.300529 
	C90.442657,37.027405 90.887581,37.015625 91.666245,37.000980 
	C91.396751,37.825047 90.793510,38.651981 90.190269,39.478916 
	C90.051407,38.839901 89.912552,38.200886 89.885712,37.300529 
z"/>
<path fill="#4E4E4E" opacity="1.000000" stroke="none" 
	d="
M95.664207,35.805470 
	C95.376297,35.656059 95.253975,35.469128 95.131645,35.282196 
	C95.276108,35.244823 95.511635,35.135921 95.548599,35.182983 
	C95.679077,35.349106 95.741539,35.568661 95.664207,35.805470 
z"/>
<path fill="#464646" opacity="1.000000" stroke="none" 
	d="
M84.002464,41.994102 
	C84.004799,41.988338 84.202698,41.672619 84.202698,41.672619 
	C84.202698,41.672619 84.189049,41.908325 84.100342,41.951698 
	C84.011642,41.995068 84.000130,41.999863 84.002464,41.994102 
z"/>
<path fill="#059EFD" opacity="1.000000" stroke="none" 
	d="
M66.350189,107.102921 
	C65.881866,106.709358 65.680725,106.463669 65.221893,106.134720 
	C56.752045,107.382828 57.770290,99.075714 53.740494,95.326721 
	C54.869583,95.186722 55.617611,95.093964 56.681171,95.002106 
	C62.886932,96.677391 67.266983,99.837135 68.096970,106.688759 
	C67.556084,107.059586 67.115028,107.132027 66.350189,107.102921 
z"/>
<path fill="#059EFD" opacity="1.000000" stroke="none" 
	d="
M53.736855,93.004875 
	C55.889824,92.996033 57.763462,92.996033 59.637104,92.996033 
	C59.658058,93.229828 59.679012,93.463615 59.699966,93.697411 
	C59.011982,93.800056 58.323997,93.902710 57.318069,94.007874 
	C55.559181,93.967621 54.118244,93.924873 52.677303,93.882126 
	C52.937378,93.592659 53.197453,93.303185 53.736855,93.004875 
z"/>
<path fill="#19B5FC" opacity="1.000000" stroke="none" 
	d="
M44.991474,91.748535 
	C44.652710,91.790146 44.573391,91.530693 44.876862,91.117294 
	C45.005390,91.022346 44.996658,91.506485 44.991474,91.748535 
z"/>
<path fill="#2CD2FE" opacity="1.000000" stroke="none" 
	d="
M41.018963,105.605499 
	C34.798077,106.654762 35.789249,100.430008 33.058311,97.353256 
	C33.744926,97.005753 34.492847,97.010597 35.614326,97.022125 
	C37.662155,99.764305 39.336433,102.499809 41.018963,105.605499 
z"/>
<path fill="#19B5FC" opacity="1.000000" stroke="none" 
	d="
M41.491310,91.484268 
	C41.516167,91.473816 41.466457,91.494713 41.491310,91.484268 
z"/>
<path fill="#010101" opacity="1.000000" stroke="none" 
	d="
M73.102219,54.680771 
	C72.741608,53.531872 72.395508,51.971455 72.061577,49.974800 
	C72.421402,51.115459 72.769066,52.692356 73.102219,54.680771 
z"/>
<path fill="#39B9F8" opacity="1.000000" stroke="none" 
	d="
M21.998772,45.018158 
	C22.402735,47.377834 23.212645,49.761696 23.073961,52.089039 
	C22.974518,53.757843 21.606094,55.351028 20.076336,56.935471 
	C18.129042,55.739262 16.411940,54.799839 15.801554,53.383472 
	C14.790534,51.037464 14.492122,48.384361 13.893480,45.860638 
	C13.893480,45.860638 13.929622,45.941555 14.116310,45.808365 
	C14.513780,45.384354 14.724560,45.093536 14.935339,44.802715 
	C14.935338,44.802715 14.942671,44.941704 15.110502,44.810570 
	C15.508591,44.406239 15.738848,44.133045 15.969105,43.859848 
	C15.969104,43.859848 15.948025,43.945557 16.215942,43.940723 
	C17.053099,43.320278 17.622334,42.704666 18.191570,42.089050 
	C18.594437,41.712543 18.997303,41.336033 19.905294,41.178505 
	C20.939869,42.604374 21.469320,43.811264 21.998772,45.018158 
z"/>
<path fill="#44C7F6" opacity="1.000000" stroke="none" 
	d="
M13.587933,45.982723 
	C14.492122,48.384361 14.790534,51.037464 15.801554,53.383472 
	C16.411940,54.799839 18.129042,55.739262 19.720579,56.958664 
	C19.492214,58.151524 18.892132,59.278709 17.783916,60.702808 
	C16.178476,61.334373 15.081169,61.669022 13.983862,62.003670 
	C12.363670,58.710915 10.743479,55.418156 8.951564,51.863899 
	C10.280689,49.769867 11.781537,47.937336 13.587933,45.982723 
z"/>
<path fill="#2FA1F8" opacity="1.000000" stroke="none" 
	d="
M22.330517,45.026783 
	C21.469320,43.811264 20.939869,42.604374 20.189419,41.145500 
	C21.986641,39.841095 24.004862,38.788673 26.383102,37.755852 
	C27.145054,39.304180 27.606504,40.820251 27.934978,42.364605 
	C28.429071,44.687645 28.830095,47.030483 29.137815,49.679024 
	C24.614717,51.252369 25.449215,45.827332 22.330517,45.026783 
z"/>
<path fill="#44C7F6" opacity="1.000000" stroke="none" 
	d="
M17.881863,42.125397 
	C17.622334,42.704666 17.053099,43.320278 16.174137,43.926590 
	C16.433659,43.332111 17.002909,42.746929 17.881863,42.125397 
z"/>
<path fill="#44C7F6" opacity="1.000000" stroke="none" 
	d="
M14.655710,44.886723 
	C14.724560,45.093536 14.513780,45.384354 14.074219,45.822212 
	C14.022321,45.636410 14.199201,45.303570 14.655710,44.886723 
z"/>
<path fill="#44C7F6" opacity="1.000000" stroke="none" 
	d="
M15.684437,43.922318 
	C15.738848,44.133045 15.508591,44.406239 15.040913,44.810036 
	C15.002251,44.622017 15.201009,44.303398 15.684437,43.922318 
z"/>
<path fill="#27B7EB" opacity="1.000000" stroke="none" 
	d="
M35.919846,77.881424 
	C31.194130,75.700928 31.392447,71.643234 32.482624,67.125488 
	C36.180584,69.736938 38.087807,73.065796 35.919846,77.881424 
z"/>
<path fill="#14A0FD" opacity="1.000000" stroke="none" 
	d="
M45.744911,74.228714 
	C46.793865,74.254021 47.604343,74.495102 48.705475,74.869148 
	C48.996132,75.002121 48.999832,75.000000 48.996769,75.336029 
	C48.999233,76.117554 49.004757,76.563042 49.010284,77.008537 
	C49.783707,77.336288 50.557129,77.664040 51.659061,78.002869 
	C51.987572,78.013947 51.992241,78.471375 51.992558,78.699600 
	C49.960808,78.991142 47.928745,79.054466 45.462921,79.101944 
	C44.276535,77.790703 43.523903,76.495285 42.795242,75.241127 
	C43.426823,75.055550 44.466629,74.750008 45.744911,74.228714 
z"/>
<path fill="#27B7EB" opacity="1.000000" stroke="none" 
	d="
M36.869926,78.726562 
	C36.697777,78.804626 36.370518,78.693687 35.951729,78.330597 
	C36.185329,78.156555 36.470203,78.309593 36.869926,78.726562 
z"/>
<path fill="#33C8FA" opacity="1.000000" stroke="none" 
	d="
M13.826027,62.290794 
	C15.081169,61.669022 16.178476,61.334373 17.621170,60.982910 
	C18.451084,61.276821 18.935612,61.587547 19.710579,61.945679 
	C18.835384,68.971931 16.724756,70.345459 11.177141,67.296249 
	C11.871074,65.519501 12.769633,64.048714 13.826027,62.290794 
z"/>
<path fill="#0E90F6" opacity="1.000000" stroke="none" 
	d="
M49.355453,77.008011 
	C49.004757,76.563042 48.999233,76.117554 48.995094,75.338081 
	C50.293224,75.292122 51.589966,75.580132 52.886707,75.868149 
	C52.852448,76.156464 52.818184,76.444786 52.783924,76.733101 
	C51.756157,76.824562 50.728390,76.916016 49.355453,77.008011 
z"/>
</svg>