<svg version="1.1" id="Layer_1" xmlns="http://www.w3.org/2000/svg" xmlns:xlink="http://www.w3.org/1999/xlink" x="0px" y="0px"
	 width="100%" viewBox="0 0 125 125" enable-background="new 0 0 125 125" xml:space="preserve">
<path fill="#E5EEF3" opacity="1.000000" stroke="none" 
	d="
M0.999999,125.000000 
	C1.000000,84.312439 1.000000,43.624878 1.268940,2.429642 
	C1.691920,1.614646 1.845960,1.307323 2.000000,1.000000 
	C42.687561,1.000000 83.375122,1.000000 124.570343,1.268952 
	C125.385330,1.691936 125.692665,1.845967 126.000000,2.000000 
	C126.000000,42.687561 126.000000,83.375122 125.731041,124.570335 
	C125.308052,125.385323 125.154022,125.692657 125.000000,126.000000 
	C84.312439,126.000000 43.624878,126.000000 2.429661,125.731049 
	C1.614671,125.308067 1.307334,125.154037 0.999999,125.000000 
M10.640684,10.947970 
	C13.258490,11.398849 14.107033,10.441797 13.302741,7.357035 
	C15.092021,5.260255 15.466059,3.643427 11.581444,3.109658 
	C11.581444,4.347266 11.581444,5.345571 11.581444,5.918854 
	C9.321075,4.867869 7.188360,3.876239 4.335738,2.549879 
	C5.933859,5.784417 6.965014,7.871434 7.452662,10.216900 
	C8.300706,10.431789 9.148750,10.646680 10.640684,10.947970 
M84.830727,73.698067 
	C84.931969,65.896858 85.079216,58.095669 85.083687,50.294403 
	C85.084343,49.154842 84.404419,48.014896 83.356850,46.400604 
	C69.616631,46.400604 55.876415,46.400604 42.129307,46.400604 
	C42.129307,56.048496 42.129307,64.997612 42.540764,74.686325 
	C55.823826,74.745880 69.106880,74.815155 82.389984,74.829903 
	C82.928810,74.830498 83.468216,74.316452 84.830727,73.698067 
M59.474503,97.390846 
	C58.479832,98.265862 57.390026,99.054924 56.507668,100.031425 
	C53.392933,103.478477 53.054710,108.363266 55.594807,111.937691 
	C58.251102,115.675629 62.940090,117.092796 67.082314,115.409622 
	C71.391609,113.658539 73.811623,109.107086 72.910202,104.448708 
	C71.911400,99.287010 67.655556,96.826286 59.474503,97.390846 
M37.368366,85.714928 
	C32.711193,84.302147 28.466618,84.473022 25.574434,89.085114 
	C23.224949,92.831772 23.214090,96.647629 25.865044,100.254967 
	C28.276875,103.536919 31.722019,104.712318 35.575714,103.836639 
	C39.113621,103.032715 41.994030,101.093155 42.780266,97.148140 
	C43.726494,92.400345 42.290489,88.634865 37.368366,85.714928 
M84.010223,33.594738 
	C84.331223,35.032558 84.346687,36.639240 85.030510,37.876541 
	C87.083977,41.592075 90.258438,44.166969 94.634224,43.780975 
	C98.609016,43.430363 101.675842,41.358395 103.150414,37.189339 
	C104.642952,32.969463 103.411522,29.730553 100.382698,26.895256 
	C94.577263,21.460781 87.088287,24.183172 84.010223,33.594738 
M43.003773,34.402508 
	C42.665112,27.669271 38.588757,23.749727 32.803650,24.594770 
	C27.699749,25.340307 23.857473,29.590269 24.009632,34.321880 
	C24.179550,39.605824 28.120037,43.646404 33.433662,43.985291 
	C38.238514,44.291729 41.756638,41.068287 43.003773,34.402508 
M16.840399,72.929840 
	C22.480007,74.870941 27.984608,72.837692 29.737633,68.165947 
	C31.517056,63.423859 29.524231,57.774616 25.341768,55.704575 
	C20.019411,53.070362 14.822647,54.761192 11.992004,60.048088 
	C9.459195,64.778709 10.966134,69.326370 16.840399,72.929840 
M93.621704,104.921745 
	C95.060555,104.573822 96.616493,104.466034 97.916031,103.832390 
	C101.630753,102.021133 103.937546,98.862869 103.812935,94.787910 
	C103.682190,90.512329 101.068062,87.364899 97.140648,85.659004 
	C93.306633,83.993668 90.168007,85.426285 87.260132,88.181290 
	C81.012703,94.100288 85.128517,103.478447 93.621704,104.921745 
M72.995911,19.692005 
	C72.872856,12.409801 63.653500,8.229004 57.735546,12.847986 
	C54.111336,15.676690 52.951042,20.169456 54.763779,24.475708 
	C56.669167,29.002054 60.244175,31.041250 65.734436,29.897463 
	C70.537086,28.896925 72.793633,25.347769 72.995911,19.692005 
M114.853600,69.030914 
	C115.108459,68.239571 115.417862,67.461166 115.609268,66.654762 
	C116.799644,61.639912 114.306992,56.912365 109.489647,54.997650 
	C105.730164,53.503395 100.203903,55.342300 98.143456,58.773193 
	C95.851181,62.590122 96.714989,68.529907 99.992661,71.488937 
	C104.632370,75.677567 108.638046,75.192650 114.853600,69.030914 
z"/>
<path fill="#BFC7CA" opacity="1.000000" stroke="none" 
	d="
M125.500000,126.000000 
	C125.154022,125.692657 125.308052,125.385323 125.731041,125.038994 
	C126.000000,125.333336 126.000000,125.666664 125.500000,126.000000 
z"/>
<path fill="#BFC7CA" opacity="1.000000" stroke="none" 
	d="
M0.999999,125.500000 
	C1.307334,125.154037 1.614671,125.308067 1.961003,125.731049 
	C1.666667,126.000000 1.333333,126.000000 0.999999,125.500000 
z"/>
<path fill="#BFC7CA" opacity="1.000000" stroke="none" 
	d="
M126.000000,1.500000 
	C125.692665,1.845967 125.385330,1.691936 125.039001,1.268952 
	C125.333336,1.000000 125.666664,1.000000 126.000000,1.500000 
z"/>
<path fill="#BFC7CA" opacity="1.000000" stroke="none" 
	d="
M1.500000,1.000000 
	C1.845960,1.307323 1.691920,1.614646 1.268940,1.960985 
	C1.000000,1.666667 1.000000,1.333333 1.500000,1.000000 
z"/>
<path fill="#FCFCFC" opacity="1.000000" stroke="none" 
	d="
M59.856522,97.256409 
	C67.655556,96.826286 71.911400,99.287010 72.910202,104.448708 
	C73.811623,109.107086 71.391609,113.658539 67.082314,115.409622 
	C62.940090,117.092796 58.251102,115.675629 55.594807,111.937691 
	C53.054710,108.363266 53.392933,103.478477 56.507668,100.031425 
	C57.390026,99.054924 58.479832,98.265862 59.856522,97.256409 
z"/>
<path fill="#F6F2F3" opacity="1.000000" stroke="none" 
	d="
M37.728302,85.883286 
	C42.290489,88.634865 43.726494,92.400345 42.780266,97.148140 
	C41.994030,101.093155 39.113621,103.032715 35.575714,103.836639 
	C31.722019,104.712318 28.276875,103.536919 25.865044,100.254967 
	C23.214090,96.647629 23.224949,92.831772 25.574434,89.085114 
	C28.466618,84.473022 32.711193,84.302147 37.728302,85.883286 
z"/>
<path fill="#F8FBFC" opacity="1.000000" stroke="none" 
	d="
M84.027557,33.198750 
	C87.088287,24.183172 94.577263,21.460781 100.382698,26.895256 
	C103.411522,29.730553 104.642952,32.969463 103.150414,37.189339 
	C101.675842,41.358395 98.609016,43.430363 94.634224,43.780975 
	C90.258438,44.166969 87.083977,41.592075 85.030510,37.876541 
	C84.346687,36.639240 84.331223,35.032558 84.027557,33.198750 
M92.319267,31.870796 
	C89.699287,33.962204 89.173363,36.089165 91.966415,39.061039 
	C92.548592,37.557175 92.834908,36.817585 93.714478,36.209305 
	C94.597305,36.954273 95.480133,37.699245 96.589417,38.635307 
	C97.007538,35.726875 97.402115,32.982166 97.844261,29.906580 
	C96.830574,30.318039 95.954796,30.673525 94.516975,31.040964 
	C94.048088,31.293795 93.579208,31.546625 92.319267,31.870796 
z"/>
<path fill="#FEFAF9" opacity="1.000000" stroke="none" 
	d="
M43.001186,34.812019 
	C41.756638,41.068287 38.238514,44.291729 33.433662,43.985291 
	C28.120037,43.646404 24.179550,39.605824 24.009632,34.321880 
	C23.857473,29.590269 27.699749,25.340307 32.803650,24.594770 
	C38.588757,23.749727 42.665112,27.669271 43.001186,34.812019 
M35.769310,31.054878 
	C35.989124,30.735640 36.208935,30.416401 36.428749,30.097162 
	C35.282143,30.394150 34.135536,30.691139 32.346233,31.357441 
	C31.888201,33.526196 31.430168,35.694954 30.967594,37.885216 
	C32.209579,37.540745 33.103111,37.292923 34.089466,37.752895 
	C35.301117,37.581661 36.512768,37.410431 37.724419,37.239197 
	C36.852036,36.138813 35.979652,35.038433 35.070919,33.929668 
	C35.070919,33.929668 35.067348,33.895134 35.026005,33.208912 
	C35.024788,32.519749 35.023571,31.830587 35.769310,31.054878 
z"/>
<path fill="#FDFEFE" opacity="1.000000" stroke="none" 
	d="
M16.491837,72.752853 
	C10.966134,69.326370 9.459195,64.778709 11.992004,60.048088 
	C14.822647,54.761192 20.019411,53.070362 25.341768,55.704575 
	C29.524231,57.774616 31.517056,63.423859 29.737633,68.165947 
	C27.984608,72.837692 22.480007,74.870941 16.491837,72.752853 
M22.003048,66.000519 
	C22.003048,66.000519 21.990463,66.067223 22.537502,66.055443 
	C23.030224,65.699600 23.522945,65.343765 24.023645,64.461266 
	C24.167587,62.958675 24.311529,61.456085 24.566183,58.797798 
	C22.825064,60.294109 22.330248,60.719353 21.415703,60.848312 
	C20.900614,60.861404 20.385525,60.874496 19.307919,60.893341 
	C18.636236,60.598328 17.964552,60.303318 17.292870,60.008305 
	C17.165552,61.073273 17.038235,62.138241 16.685827,63.699455 
	C16.485865,64.213127 16.285904,64.726807 16.517651,65.648911 
	C17.410563,65.498489 18.303474,65.348076 19.565647,65.178902 
	C19.565647,65.178902 19.935225,65.189781 19.914661,65.573532 
	C19.914661,65.573532 19.948851,65.956314 19.923168,66.540894 
	C20.638123,66.367310 21.353077,66.193726 22.003048,66.000519 
z"/>
<path fill="#FDFAF9" opacity="1.000000" stroke="none" 
	d="
M93.239662,104.860291 
	C85.128517,103.478447 81.012703,94.100288 87.260132,88.181290 
	C90.168007,85.426285 93.306633,83.993668 97.140648,85.659004 
	C101.068062,87.364899 103.682190,90.512329 103.812935,94.787910 
	C103.937546,98.862869 101.630753,102.021133 97.916031,103.832390 
	C96.616493,104.466034 95.060555,104.573822 93.239662,104.860291 
M95.973991,95.987656 
	C95.973991,95.987656 96.013832,96.004036 96.343071,95.341682 
	C96.688004,94.753166 97.032944,94.164650 97.334358,93.489845 
	C97.334358,93.489845 97.261742,93.416016 97.754761,93.061577 
	C97.478088,92.114128 97.201424,91.166679 96.134583,89.977249 
	C94.771393,90.022339 93.408195,90.067436 91.396767,90.138016 
	C91.215088,90.715439 91.033409,91.292862 90.260002,92.405838 
	C89.418945,96.284065 89.400734,99.565659 95.114967,99.195503 
	C95.419205,99.099846 95.723442,99.004196 96.653740,98.677429 
	C96.424591,97.766640 96.195442,96.855843 95.973991,95.987656 
z"/>
<path fill="#FEFCFB" opacity="1.000000" stroke="none" 
	d="
M72.997963,20.094910 
	C72.793633,25.347769 70.537086,28.896925 65.734436,29.897463 
	C60.244175,31.041250 56.669167,29.002054 54.763779,24.475708 
	C52.951042,20.169456 54.111336,15.676690 57.735546,12.847986 
	C63.653500,8.229004 72.872856,12.409801 72.997963,20.094910 
M60.321964,24.986229 
	C62.430233,24.986229 64.538506,24.986229 65.945488,24.986229 
	C66.118027,21.978031 66.248421,19.704630 66.382927,17.359573 
	C64.320099,17.359573 61.782818,17.359573 58.774708,17.359573 
	C59.126835,19.960201 59.429867,22.198261 60.321964,24.986229 
z"/>
<path fill="#F9FBFA" opacity="1.000000" stroke="none" 
	d="
M114.687759,69.380478 
	C108.638046,75.192650 104.632370,75.677567 99.992661,71.488937 
	C96.714989,68.529907 95.851181,62.590122 98.143456,58.773193 
	C100.203903,55.342300 105.730164,53.503395 109.489647,54.997650 
	C114.306992,56.912365 116.799644,61.639912 115.609268,66.654762 
	C115.417862,67.461166 115.108459,68.239571 114.687759,69.380478 
M103.801132,66.038483 
	C104.414368,67.364594 104.864449,68.818916 105.742821,69.936691 
	C105.997787,70.261162 107.800072,69.927177 108.334213,69.364525 
	C109.646416,67.982285 110.905197,66.398994 111.593140,64.661987 
	C111.812157,64.108978 110.166145,62.817326 109.305710,61.071724 
	C108.477882,60.081699 107.133972,58.128700 106.903030,58.252464 
	C104.871346,59.341293 102.876427,60.634586 101.233543,62.238987 
	C100.662117,62.797031 101.106613,64.395355 101.087120,65.518578 
	C101.980705,65.420998 102.874298,65.323418 103.801132,66.038483 
z"/>
<path fill="#121213" opacity="1.000000" stroke="none" 
	d="
M42.129307,73.946732 
	C42.129307,64.997612 42.129307,56.048496 42.129307,46.400604 
	C55.876415,46.400604 69.616631,46.400604 83.687241,46.930237 
	C84.000992,47.654209 83.984344,47.848549 83.502701,48.016209 
	C71.107498,47.982880 59.176884,48.027988 47.247421,47.931015 
	C44.473732,47.908470 42.896545,48.459473 43.007637,51.724663 
	C43.249668,58.838215 43.223995,65.960876 43.166195,73.288612 
	C42.726215,73.647179 42.427761,73.796959 42.129307,73.946732 
z"/>
<path fill="#404042" opacity="1.000000" stroke="none" 
	d="
M42.335037,74.316528 
	C42.427761,73.796959 42.726215,73.647179 43.603249,73.269409 
	C57.365166,73.045753 70.548508,73.050095 83.800705,73.301376 
	C83.915489,73.712944 83.961418,73.877571 84.007347,74.042191 
	C83.468216,74.316452 82.928810,74.830498 82.389984,74.829903 
	C69.106880,74.815155 55.823826,74.745880 42.335037,74.316528 
z"/>
<path fill="#BCD1E2" opacity="1.000000" stroke="none" 
	d="
M7.996167,9.958450 
	C6.965014,7.871434 5.933859,5.784417 4.335738,2.549879 
	C7.188360,3.876239 9.321075,4.867869 11.581444,5.918854 
	C11.581444,5.345571 11.581444,4.347266 11.581444,3.109658 
	C15.466059,3.643427 15.092021,5.260255 12.923983,7.815887 
	C12.065662,8.851685 11.586101,9.428631 11.026150,9.721848 
	C10.617548,9.615638 10.289336,9.793157 9.980703,9.985264 
	C10.000281,9.999851 9.972496,9.959628 9.640087,9.981873 
	C8.870508,9.988894 8.433338,9.973673 7.996167,9.958450 
z"/>
<path fill="#000000" opacity="1.000000" stroke="none" 
	d="
M84.419037,73.870132 
	C83.961418,73.877571 83.915489,73.712944 83.894302,72.834244 
	C83.935265,64.094398 83.951477,56.068645 83.967697,48.042892 
	C83.984344,47.848549 84.000992,47.654209 84.028519,47.167503 
	C84.404419,48.014896 85.084343,49.154842 85.083687,50.294403 
	C85.079216,58.095669 84.931969,65.896858 84.419037,73.870132 
z"/>
<path fill="#84AACB" opacity="1.000000" stroke="none" 
	d="
M11.106540,10.005576 
	C11.586101,9.428631 12.065662,8.851685 12.785915,8.112232 
	C14.107033,10.441797 13.258490,11.398849 10.326071,10.679081 
	C10.011457,10.410192 9.972496,9.959628 9.972496,9.959628 
	C9.972496,9.959628 10.000281,9.999851 10.265873,10.032681 
	C10.723156,10.045534 10.914848,10.025556 11.106540,10.005576 
z"/>
<path fill="#6B7E8D" opacity="1.000000" stroke="none" 
	d="
M9.640087,9.981873 
	C9.972496,9.959628 10.011457,10.410192 10.004126,10.635881 
	C9.148750,10.646680 8.300706,10.431789 7.724415,10.087675 
	C8.433338,9.973673 8.870508,9.988894 9.640087,9.981873 
z"/>
<path fill="#BDD5E8" opacity="1.000000" stroke="none" 
	d="
M95.079010,31.029007 
	C95.954796,30.673525 96.830574,30.318039 97.844261,29.906580 
	C97.402115,32.982166 97.007538,35.726875 96.589417,38.635307 
	C95.480133,37.699245 94.597305,36.954273 93.493896,35.810703 
	C93.145950,34.977402 93.018585,34.542706 93.233597,33.998875 
	C94.076988,32.936165 94.578003,31.982586 95.079010,31.029007 
z"/>
<path fill="#619FD1" opacity="1.000000" stroke="none" 
	d="
M92.891205,34.108006 
	C93.018585,34.542706 93.145950,34.977402 93.197266,35.745049 
	C92.834908,36.817585 92.548592,37.557175 91.966415,39.061039 
	C89.173363,36.089165 89.699287,33.962204 92.649887,32.107399 
	C92.950745,32.932007 92.920975,33.520004 92.891205,34.108006 
z"/>
<path fill="#F9FBFA" opacity="1.000000" stroke="none" 
	d="
M93.233597,33.998875 
	C92.920975,33.520004 92.950745,32.932007 93.045418,32.071732 
	C93.579208,31.546625 94.048088,31.293795 94.797989,31.034985 
	C94.578003,31.982586 94.076988,32.936165 93.233597,33.998875 
z"/>
<path fill="#FCE6D8" opacity="1.000000" stroke="none" 
	d="
M35.107269,33.938049 
	C35.979652,35.038433 36.852036,36.138813 37.724419,37.239197 
	C36.512768,37.410431 35.301117,37.581661 34.179497,37.091133 
	C34.548775,35.598934 34.828022,34.768490 35.107269,33.938049 
z"/>
<path fill="#F6C0A3" opacity="1.000000" stroke="none" 
	d="
M35.089096,33.933861 
	C34.828022,34.768490 34.548775,35.598934 34.133087,36.737236 
	C33.103111,37.292923 32.209579,37.540745 30.967594,37.885216 
	C31.430168,35.694954 31.888201,33.526196 32.933544,31.179287 
	C33.694012,31.039370 33.867168,31.077604 33.897678,31.378881 
	C34.192471,32.392994 34.629910,33.144066 35.067348,33.895134 
	C35.067348,33.895134 35.070919,33.929668 35.089096,33.933861 
z"/>
<path fill="#FCE6D8" opacity="1.000000" stroke="none" 
	d="
M35.046677,33.552025 
	C34.629910,33.144066 34.192471,32.392994 34.144497,31.335396 
	C34.696758,31.066385 34.859554,31.103907 35.022354,31.141426 
	C35.023571,31.830587 35.024788,32.519749 35.046677,33.552025 
z"/>
<path fill="#F88400" opacity="1.000000" stroke="none" 
	d="
M35.395832,31.098152 
	C34.859554,31.103907 34.696758,31.066385 34.287144,31.072353 
	C33.867168,31.077604 33.694012,31.039370 33.254890,30.994633 
	C34.135536,30.691139 35.282143,30.394150 36.428749,30.097162 
	C36.208935,30.416401 35.989124,30.735640 35.395832,31.098152 
z"/>
<path fill="#B7E7F8" opacity="1.000000" stroke="none" 
	d="
M21.835436,61.144596 
	C22.330248,60.719353 22.825064,60.294109 24.566183,58.797798 
	C24.311529,61.456085 24.167587,62.958675 23.714931,64.755020 
	C22.934299,65.388260 22.462381,65.727737 21.990463,66.067223 
	C21.990463,66.067223 22.003048,66.000519 21.681854,66.011185 
	C20.890057,66.000000 20.419455,65.978157 19.948851,65.956314 
	C19.948851,65.956314 19.914661,65.573532 19.949352,64.955551 
	C20.013851,63.493176 20.043661,62.648785 20.327190,61.814590 
	C20.999088,61.598053 21.417263,61.371326 21.835436,61.144596 
z"/>
<path fill="#B0E4F8" opacity="1.000000" stroke="none" 
	d="
M20.073467,61.804398 
	C20.043661,62.648785 20.013851,63.493176 19.959633,64.763672 
	C19.935225,65.189781 19.565647,65.178902 19.267757,64.860931 
	C18.552973,64.049553 18.136076,63.556152 17.516674,63.095337 
	C17.314169,63.127922 16.910917,63.203209 16.910917,63.203209 
	C17.038235,62.138241 17.165552,61.073273 17.292870,60.008305 
	C17.964552,60.303318 18.636236,60.598328 19.647011,61.118317 
	C19.986105,61.343292 20.073467,61.804398 20.073467,61.804398 
z"/>
<path fill="#8AD9F4" opacity="1.000000" stroke="none" 
	d="
M17.719179,63.062748 
	C18.136076,63.556152 18.552973,64.049553 19.083126,64.870308 
	C18.303474,65.348076 17.410563,65.498489 16.602242,65.340683 
	C17.030949,64.375885 17.375063,63.719318 17.719179,63.062748 
z"/>
<path fill="#F2FBFF" opacity="1.000000" stroke="none" 
	d="
M17.516674,63.095337 
	C17.375063,63.719318 17.030949,64.375885 16.386387,65.136467 
	C16.285904,64.726807 16.485865,64.213127 16.798372,63.451332 
	C16.910917,63.203209 17.314169,63.127922 17.516674,63.095337 
z"/>
<path fill="#8AD9F4" opacity="1.000000" stroke="none" 
	d="
M22.263983,66.061333 
	C22.462381,65.727737 22.934299,65.388260 23.710941,65.018356 
	C23.522945,65.343765 23.030224,65.699600 22.263983,66.061333 
z"/>
<path fill="#8AD9F4" opacity="1.000000" stroke="none" 
	d="
M19.936008,66.248604 
	C20.419455,65.978157 20.890057,66.000000 21.714346,66.020996 
	C21.353077,66.193726 20.638123,66.367310 19.936008,66.248604 
z"/>
<path fill="#73D3F3" opacity="1.000000" stroke="none" 
	d="
M20.327190,61.814590 
	C20.073467,61.804398 19.986105,61.343292 19.928270,61.115440 
	C20.385525,60.874496 20.900614,60.861404 21.625570,60.996456 
	C21.417263,61.371326 20.999088,61.598053 20.327190,61.814590 
z"/>
<path fill="#F39276" opacity="1.000000" stroke="none" 
	d="
M94.919731,98.832306 
	C89.400734,99.565659 89.418945,96.284065 90.804138,92.430153 
	C92.605225,92.680008 93.862175,92.905548 95.332039,93.358292 
	C96.155930,93.582367 96.766907,93.579254 97.377884,93.576141 
	C97.032944,94.164650 96.688004,94.753166 95.876411,95.807220 
	C95.246407,97.125938 95.083069,97.979118 94.919731,98.832306 
z"/>
<path fill="#EF6325" opacity="1.000000" stroke="none" 
	d="
M95.119125,93.131096 
	C93.862175,92.905548 92.605225,92.680008 91.100006,92.162376 
	C91.033409,91.292862 91.215088,90.715439 91.955582,90.363846 
	C93.984512,90.466194 95.454636,90.342712 96.924751,90.219231 
	C97.201424,91.166679 97.478088,92.114128 97.167915,93.097908 
	C96.093758,93.133186 95.606438,93.132141 95.119125,93.131096 
z"/>
<path fill="#F25700" opacity="1.000000" stroke="none" 
	d="
M96.529663,90.098236 
	C95.454636,90.342712 93.984512,90.466194 92.279701,90.351105 
	C93.408195,90.067436 94.771393,90.022339 96.529663,90.098236 
z"/>
<path fill="#F6F2F3" opacity="1.000000" stroke="none" 
	d="
M95.017349,99.013901 
	C95.083069,97.979118 95.246407,97.125938 95.711792,96.138397 
	C96.013832,96.004036 95.973991,95.987656 95.971832,96.338333 
	C95.989014,97.428856 96.008347,98.168701 96.027679,98.908539 
	C95.723442,99.004196 95.419205,99.099846 95.017349,99.013901 
z"/>
<path fill="#F3845E" opacity="1.000000" stroke="none" 
	d="
M96.340714,98.792984 
	C96.008347,98.168701 95.989014,97.428856 95.967987,96.317032 
	C96.195442,96.855843 96.424591,97.766640 96.340714,98.792984 
z"/>
<path fill="#F7AF9F" opacity="1.000000" stroke="none" 
	d="
M95.332039,93.358292 
	C95.606438,93.132141 96.093758,93.133186 96.921402,93.275131 
	C97.261742,93.416016 97.334358,93.489845 97.356125,93.532990 
	C96.766907,93.579254 96.155930,93.582367 95.332039,93.358292 
z"/>
<path fill="#F3845E" opacity="1.000000" stroke="none" 
	d="
M60.027431,24.711275 
	C59.429867,22.198261 59.126835,19.960201 58.774708,17.359573 
	C61.782818,17.359573 64.320099,17.359573 66.382927,17.359573 
	C66.248421,19.704630 66.118027,21.978031 65.945488,24.986229 
	C64.538506,24.986229 62.430233,24.986229 60.027431,24.711275 
M61.567787,20.388443 
	C62.622517,20.592487 63.677246,20.796534 64.731972,21.000578 
	C64.761429,20.725786 64.790886,20.450993 64.820343,20.176201 
	C63.937977,20.117464 63.055618,20.058729 61.567787,20.388443 
z"/>
<path fill="#4082B2" opacity="1.000000" stroke="none" 
	d="
M103.767883,65.225845 
	C102.874298,65.323418 101.980705,65.420998 101.087120,65.518570 
	C101.106613,64.395355 100.662117,62.797031 101.233543,62.238987 
	C102.876427,60.634586 104.871346,59.341293 106.903030,58.252464 
	C107.133972,58.128700 108.477882,60.081699 109.193039,61.838409 
	C107.309547,63.478676 105.538712,64.352257 103.767883,65.225845 
z"/>
<path fill="#FAE35D" opacity="1.000000" stroke="none" 
	d="
M103.784508,65.632156 
	C105.538712,64.352257 107.309547,63.478676 109.226959,62.234379 
	C110.166145,62.817326 111.812157,64.108978 111.593140,64.661987 
	C110.905197,66.398994 109.646416,67.982285 108.334213,69.364525 
	C107.800072,69.927177 105.997787,70.261162 105.742821,69.936691 
	C104.864449,68.818916 104.414368,67.364594 103.784508,65.632156 
z"/>
<path fill="#353537" opacity="1.000000" stroke="none" 
	d="
M83.502701,48.016209 
	C83.951477,56.068645 83.935265,64.094398 83.825455,72.587296 
	C70.548508,73.050095 57.365166,73.045753 43.744774,73.060608 
	C43.223995,65.960876 43.249668,58.838215 43.007637,51.724663 
	C42.896545,48.459473 44.473732,47.908470 47.247421,47.931015 
	C59.176884,48.027988 71.107498,47.982880 83.502701,48.016209 
M66.892349,57.688629 
	C67.283394,57.667740 67.674438,57.646847 68.837242,57.747742 
	C69.968262,57.157040 71.099281,56.566341 72.821243,56.061977 
	C73.394745,55.737892 74.497963,55.203060 74.465019,55.120247 
	C73.367424,52.361431 70.719543,52.305653 67.506477,55.005459 
	C67.331169,55.009708 67.155853,55.013962 66.292412,55.159718 
	C66.498856,55.819584 66.705292,56.479450 66.968559,57.099419 
	C66.968559,57.099419 66.940704,57.035820 66.892349,57.688629 
M65.817032,61.635506 
	C65.527931,61.426987 65.238831,61.218468 64.282639,61.077473 
	C64.072792,61.643761 63.862953,62.210049 62.914749,62.923256 
	C62.571953,63.517921 62.229156,64.112587 61.886360,64.707253 
	C62.636620,65.070549 63.386875,65.433846 64.728035,65.627235 
	C65.532654,64.773552 66.337280,63.919872 67.789589,62.953671 
	C67.213341,62.675488 66.637100,62.397301 65.817032,61.635506 
M74.662506,65.244278 
	C75.213081,64.898560 75.763649,64.552849 76.314224,64.207130 
	C75.554520,63.771530 74.794823,63.335926 73.370438,62.990234 
	C73.010231,63.360001 72.650017,63.729767 72.289803,64.099533 
	C72.869171,64.427200 73.448547,64.754875 74.662506,65.244278 
z"/>
<path fill="#6B7E8D" opacity="1.000000" stroke="none" 
	d="
M11.026150,9.721848 
	C10.914848,10.025556 10.723156,10.045534 10.246295,10.018093 
	C10.289336,9.793157 10.617548,9.615638 11.026150,9.721848 
z"/>
<path fill="#FEFCFB" opacity="1.000000" stroke="none" 
	d="
M61.870522,20.194218 
	C63.055618,20.058729 63.937977,20.117464 64.820343,20.176201 
	C64.790886,20.450993 64.761429,20.725786 64.731972,21.000578 
	C63.677246,20.796534 62.622517,20.592487 61.870522,20.194218 
z"/>
<path fill="#272728" opacity="1.000000" stroke="none" 
	d="
M68.029274,54.936058 
	C70.719543,52.305653 73.367424,52.361431 74.465019,55.120247 
	C74.497963,55.203060 73.394745,55.737892 72.386871,55.715263 
	C70.666672,55.765663 69.380836,56.162773 68.061783,56.153984 
	C68.028793,55.477406 68.029037,55.206730 68.029274,54.936058 
z"/>
<path fill="#ABABAB" opacity="1.000000" stroke="none" 
	d="
M67.141899,63.066193 
	C66.337280,63.919872 65.532654,64.773552 64.397728,65.330696 
	C63.929314,64.281548 63.791206,63.528946 63.653107,62.776337 
	C63.862953,62.210049 64.072792,61.643761 64.651260,61.335747 
	C65.307861,62.047642 65.595833,62.501259 66.198914,62.976128 
	C66.723312,63.020313 66.932602,63.043255 67.141899,63.066193 
z"/>
<path fill="#BBBBBB" opacity="1.000000" stroke="none" 
	d="
M68.095009,56.559887 
	C69.380836,56.162773 70.666672,55.765663 72.091400,55.672096 
	C71.099281,56.566341 69.968262,57.157040 68.468353,57.667786 
	C68.099464,57.587826 68.130722,57.547081 68.176453,57.298302 
	C68.179794,56.886314 68.137405,56.723099 68.095009,56.559887 
z"/>
<path fill="#777778" opacity="1.000000" stroke="none" 
	d="
M63.283928,62.849796 
	C63.791206,63.528946 63.929314,64.281548 64.102280,65.415649 
	C63.386875,65.433846 62.636620,65.070549 61.886360,64.707253 
	C62.229156,64.112587 62.571953,63.517921 63.283928,62.849796 
z"/>
<path fill="#909090" opacity="1.000000" stroke="none" 
	d="
M74.035118,62.900326 
	C74.794823,63.335926 75.554520,63.771530 76.314224,64.207130 
	C75.763649,64.552849 75.213081,64.898560 74.378510,64.800247 
	C74.074715,63.870918 74.054916,63.385624 74.035118,62.900326 
z"/>
<path fill="#A6A6A6" opacity="1.000000" stroke="none" 
	d="
M73.702774,62.945282 
	C74.054916,63.385624 74.074715,63.870918 74.061218,64.719376 
	C73.448547,64.754875 72.869171,64.427200 72.289803,64.099533 
	C72.650017,63.729767 73.010231,63.360001 73.702774,62.945282 
z"/>
<path fill="#A6A6A6" opacity="1.000000" stroke="none" 
	d="
M66.911736,57.139317 
	C66.705292,56.479450 66.498856,55.819584 66.654831,55.442757 
	C66.982086,56.196968 66.946907,56.668140 66.911736,57.139317 
z"/>
<path fill="#BBBBBB" opacity="1.000000" stroke="none" 
	d="
M67.465744,63.009933 
	C66.932602,63.043255 66.723312,63.020313 66.225616,62.763470 
	C65.937210,62.529564 66.060852,62.119118 66.060852,62.119118 
	C66.637100,62.397301 67.213341,62.675488 67.465744,63.009933 
z"/>
<path fill="#272728" opacity="1.000000" stroke="none" 
	d="
M65.938942,61.877312 
	C66.060852,62.119118 65.937210,62.529564 65.910507,62.742222 
	C65.595833,62.501259 65.307861,62.047642 64.984810,61.301987 
	C65.238831,61.218468 65.527931,61.426987 65.938942,61.877312 
z"/>
<path fill="#69696A" opacity="1.000000" stroke="none" 
	d="
M66.940147,57.119370 
	C66.946907,56.668140 66.982086,56.196968 66.998894,55.372005 
	C67.155853,55.013962 67.331169,55.009708 67.767876,54.970757 
	C68.029037,55.206730 68.028793,55.477406 68.061783,56.153984 
	C68.137405,56.723099 68.179794,56.886314 67.907303,57.100342 
	C67.375183,57.112709 67.157944,57.074265 66.940704,57.035820 
	C66.940704,57.035820 66.968559,57.099419 66.940147,57.119370 
z"/>
<path fill="#A6A6A6" opacity="1.000000" stroke="none" 
	d="
M66.916527,57.362225 
	C67.157944,57.074265 67.375183,57.112709 67.861572,57.349117 
	C68.130722,57.547081 68.099464,57.587826 68.082474,57.606892 
	C67.674438,57.646847 67.283394,57.667740 66.916527,57.362225 
z"/>
</svg>